<svg xmlns="http://www.w3.org/2000/svg" width="1200" height="650" viewBox="0 0 1200 650" role="img" aria-labelledby="title">
  <title id="title">Synthetic cost build-up for office-02</title>
  <rect width="1200" height="650" fill="#eef2ed"/>
  <text x="38" y="42" font-family="Arial, sans-serif" font-size="13" font-weight="700" fill="#2f7d6d">COST BUILD-UP / SYNTHETIC UNIT RATES</text>
  <text x="38" y="78" font-family="Arial, sans-serif" font-size="28" font-weight="700" fill="#17231f">office-02</text>
  <text x="38" y="103" font-family="Arial, sans-serif" font-size="13" fill="#66736c">Base SGD 35,739 | Illustrative range SGD 30,838-40,641 | Rate set synthetic-sgd-2026-07-v1</text>
  <g font-family="Arial, sans-serif"><text x="38" y="155" font-size="12" font-weight="700" fill="#17231f">QTO-EXT</text><text x="105" y="155" font-size="12" fill="#66736c">External walling</text><rect x="330" y="138" width="620" height="22" rx="3" fill="#e4e9e5"/><rect x="330" y="138" width="539.1" height="22" rx="3" fill="#2f7d6d"/><line x1="788.3" y1="134" x2="788.3" y2="164" stroke="#d49336" stroke-width="2"/><line x1="950.0" y1="134" x2="950.0" y2="164" stroke="#d49336" stroke-width="2"/><text x="975" y="155" font-size="12" font-weight="700" fill="#17231f">SGD 14,425</text><text x="38" y="214" font-size="12" font-weight="700" fill="#17231f">QTO-FLR</text><text x="105" y="214" font-size="12" fill="#66736c">Floor finish</text><rect x="330" y="197" width="620" height="22" rx="3" fill="#e4e9e5"/><rect x="330" y="197" width="203.3" height="22" rx="3" fill="#2f7d6d"/><line x1="517.1" y1="193" x2="517.1" y2="223" stroke="#d49336" stroke-width="2"/><line x1="549.6" y1="193" x2="549.6" y2="223" stroke="#d49336" stroke-width="2"/><text x="975" y="214" font-size="12" font-weight="700" fill="#17231f">SGD 5,440</text><text x="38" y="273" font-size="12" font-weight="700" fill="#17231f">QTO-WIN</text><text x="105" y="273" font-size="12" fill="#66736c">Window units by glazed area</text><rect x="330" y="256" width="620" height="22" rx="3" fill="#e4e9e5"/><rect x="330" y="256" width="174.9" height="22" rx="3" fill="#2f7d6d"/><line x1="473.4" y1="252" x2="473.4" y2="282" stroke="#d49336" stroke-width="2"/><line x1="536.4" y1="252" x2="536.4" y2="282" stroke="#d49336" stroke-width="2"/><text x="975" y="273" font-size="12" font-weight="700" fill="#17231f">SGD 4,680</text><text x="38" y="332" font-size="12" font-weight="700" fill="#17231f">QTO-CEI</text><text x="105" y="332" font-size="12" fill="#66736c">Ceiling finish</text><rect x="330" y="315" width="620" height="22" rx="3" fill="#e4e9e5"/><rect x="330" y="315" width="155.5" height="22" rx="3" fill="#2f7d6d"/><line x1="469.9" y1="311" x2="469.9" y2="341" stroke="#d49336" stroke-width="2"/><line x1="501.0" y1="311" x2="501.0" y2="341" stroke="#d49336" stroke-width="2"/><text x="975" y="332" font-size="12" font-weight="700" fill="#17231f">SGD 4,160</text><text x="38" y="391" font-size="12" font-weight="700" fill="#17231f">QTO-SLB</text><text x="105" y="391" font-size="12" fill="#66736c">Concrete floor slab</text><rect x="330" y="374" width="620" height="22" rx="3" fill="#e4e9e5"/><rect x="330" y="374" width="94.2" height="22" rx="3" fill="#2f7d6d"/><line x1="412.9" y1="370" x2="412.9" y2="400" stroke="#d49336" stroke-width="2"/><line x1="435.5" y1="370" x2="435.5" y2="400" stroke="#d49336" stroke-width="2"/><text x="975" y="391" font-size="12" font-weight="700" fill="#17231f">SGD 2,520</text><text x="38" y="450" font-size="12" font-weight="700" fill="#17231f">QTO-DOR</text><text x="105" y="450" font-size="12" fill="#66736c">Door sets</text><rect x="330" y="433" width="620" height="22" rx="3" fill="#e4e9e5"/><rect x="330" y="433" width="93.4" height="22" rx="3" fill="#2f7d6d"/><line x1="404.8" y1="429" x2="404.8" y2="459" stroke="#d49336" stroke-width="2"/><line x1="442.1" y1="429" x2="442.1" y2="459" stroke="#d49336" stroke-width="2"/><text x="975" y="450" font-size="12" font-weight="700" fill="#17231f">SGD 2,500</text><text x="38" y="509" font-size="12" font-weight="700" fill="#17231f">QTO-INT</text><text x="105" y="509" font-size="12" fill="#66736c">Internal partitions</text><rect x="330" y="492" width="620" height="22" rx="3" fill="#e4e9e5"/><rect x="330" y="492" width="75.3" height="22" rx="3" fill="#2f7d6d"/><line x1="396.3" y1="488" x2="396.3" y2="518" stroke="#d49336" stroke-width="2"/><line x1="414.3" y1="488" x2="414.3" y2="518" stroke="#d49336" stroke-width="2"/><text x="975" y="509" font-size="12" font-weight="700" fill="#17231f">SGD 2,015</text></g>
  <rect x="38" y="570" width="1124" height="44" rx="4" fill="#ffffff" stroke="#d5ddd7"/>
  <text x="56" y="597" font-family="Arial, sans-serif" font-size="11" fill="#66736c">Gold markers show item-level rate uncertainty only. They exclude scope, market, design-development, and commercial risk.</text>
</svg>