<svg xmlns="http://www.w3.org/2000/svg" width="1200" height="650" viewBox="0 0 1200 650" role="img" aria-labelledby="title desc">
  <title id="title">Synthetic vector takeoff for Two-Room Office Fixture</title>
  <desc id="desc">Rectangular floor-plan geometry with classified walls, openings, and measured quantities.</desc>
  <rect width="1200" height="650" fill="#f4f1e9"/>
  <text x="38" y="42" font-family="Arial, sans-serif" font-size="13" font-weight="700" fill="#e85d3f">VECTOR TAKEOFF / SYNTHETIC FIXTURE</text>
  <text x="38" y="78" font-family="Arial, sans-serif" font-size="29" font-weight="700" fill="#17231f">Two-Room Office Fixture</text>
  <text x="38" y="103" font-family="Arial, sans-serif" font-size="13" fill="#66736c">Scale 1 m/unit | Storey height 3 m | Plan office-02</text>
  <g font-family="Arial, sans-serif"><rect x="130.2" y="151.7" width="293.7" height="391.6" fill="#e7eee9" stroke="none"/><text x="277.1" y="347.5" text-anchor="middle" font-size="13" font-weight="700" fill="#17231f">Open Office</text><text x="277.1" y="366.5" text-anchor="middle" font-size="11" fill="#66736c">48.0 m2</text><rect x="424.0" y="151.7" width="195.8" height="391.6" fill="#e8edf2" stroke="none"/><text x="521.9" y="347.5" text-anchor="middle" font-size="13" font-weight="700" fill="#17231f">Meeting Room</text><text x="521.9" y="366.5" text-anchor="middle" font-size="11" fill="#66736c">32.0 m2</text><line x1="130.2" y1="543.3" x2="424.0" y2="543.3" stroke="#17231f" stroke-width="5" stroke-linecap="square"/><line x1="424.0" y1="543.3" x2="619.8" y2="543.3" stroke="#17231f" stroke-width="5" stroke-linecap="square"/><line x1="130.2" y1="151.7" x2="424.0" y2="151.7" stroke="#17231f" stroke-width="5" stroke-linecap="square"/><line x1="424.0" y1="151.7" x2="619.8" y2="151.7" stroke="#17231f" stroke-width="5" stroke-linecap="square"/><line x1="130.2" y1="543.3" x2="130.2" y2="151.7" stroke="#17231f" stroke-width="5" stroke-linecap="square"/><line x1="424.0" y1="543.3" x2="424.0" y2="151.7" stroke="#426b8f" stroke-width="3" stroke-linecap="square"/><line x1="619.8" y1="543.3" x2="619.8" y2="151.7" stroke="#17231f" stroke-width="5" stroke-linecap="square"/><line x1="179.2" y1="543.3" x2="237.9" y2="543.3" stroke="#ffffff" stroke-width="8"/><line x1="179.2" y1="543.3" x2="237.9" y2="543.3" stroke="#e85d3f" stroke-width="4"/><line x1="424.0" y1="445.4" x2="424.0" y2="396.4" stroke="#ffffff" stroke-width="8"/><line x1="424.0" y1="445.4" x2="424.0" y2="396.4" stroke="#e85d3f" stroke-width="4"/><line x1="228.2" y1="151.7" x2="326.1" y2="151.7" stroke="#ffffff" stroke-width="8"/><line x1="228.2" y1="151.7" x2="326.1" y2="151.7" stroke="#2f7d6d" stroke-width="4"/><line x1="472.9" y1="151.7" x2="570.8" y2="151.7" stroke="#ffffff" stroke-width="8"/><line x1="472.9" y1="151.7" x2="570.8" y2="151.7" stroke="#2f7d6d" stroke-width="4"/></g>
  <text x="780" y="122" font-family="Arial, sans-serif" font-size="12" font-weight="700" fill="#66736c">MEASURED QUANTITIES</text>
  <g font-family="Arial, sans-serif"><rect x="780" y="154" width="360" height="52" rx="4" fill="#ffffff" stroke="#d5ddd7"/><text x="798" y="174" font-size="11" fill="#66736c">Floor area</text><text x="798" y="196" font-size="18" font-weight="700" fill="#17231f">80.0 m2</text><rect x="780" y="220" width="360" height="52" rx="4" fill="#ffffff" stroke="#d5ddd7"/><text x="798" y="240" font-size="11" fill="#66736c">External wall</text><text x="798" y="262" font-size="18" font-weight="700" fill="#17231f">99.5 m2</text><rect x="780" y="286" width="360" height="52" rx="4" fill="#ffffff" stroke="#d5ddd7"/><text x="798" y="306" font-size="11" fill="#66736c">Partitions</text><text x="798" y="328" font-size="18" font-weight="700" fill="#17231f">21.9 m2</text><rect x="780" y="352" width="360" height="52" rx="4" fill="#ffffff" stroke="#d5ddd7"/><text x="798" y="372" font-size="11" fill="#66736c">Slab</text><text x="798" y="394" font-size="18" font-weight="700" fill="#17231f">12.0 m3</text><rect x="780" y="418" width="360" height="52" rx="4" fill="#ffffff" stroke="#d5ddd7"/><text x="798" y="438" font-size="11" fill="#66736c">Doors</text><text x="798" y="460" font-size="18" font-weight="700" fill="#17231f">2 ea</text><rect x="780" y="484" width="360" height="52" rx="4" fill="#ffffff" stroke="#d5ddd7"/><text x="798" y="504" font-size="11" fill="#66736c">Windows</text><text x="798" y="526" font-size="18" font-weight="700" fill="#17231f">6.0 m2</text></g>
  <line x1="790" y1="575" x2="830" y2="575" stroke="#17231f" stroke-width="5"/><text x="840" y="579" font-family="Arial, sans-serif" font-size="11" fill="#66736c">External wall</text>
  <line x1="940" y1="575" x2="980" y2="575" stroke="#426b8f" stroke-width="3"/><text x="990" y="579" font-family="Arial, sans-serif" font-size="11" fill="#66736c">Partition</text>
  <text x="38" y="625" font-family="Arial, sans-serif" font-size="11" fill="#66736c">Measurement fixture only. No PDF/CAD/BIM parsing, professional quantity survey, live rate book, or tender recommendation.</text>
</svg>