<?xml version="1.0" encoding="UTF-8"?>
<svg xmlns="http://www.w3.org/2000/svg" width="1400" height="840" viewBox="0 0 1400 840" role="img" aria-labelledby="map-title map-desc">
<metadata>{&quot;badges&quot;:[&quot;VECTOR INPUT&quot;,&quot;SYNTHETIC RATES&quot;,&quot;NO AWARD RANKING&quot;],&quot;boundary&quot;:&quot;A qualified QS verifies measurement rules, rates, scope, risk, and commercial decisions.&quot;,&quot;connectors&quot;:[&quot;validate&quot;,&quot;measure&quot;,&quot;price&quot;,&quot;compare&quot;],&quot;evidence&quot;:[{&quot;accent&quot;:&quot;#00A896&quot;,&quot;details&quot;:[&quot;exact-match rate 100.0%&quot;,&quot;cost total MAE SGD 0.00&quot;],&quot;headline&quot;:&quot;21 quantity lines&quot;,&quot;tag&quot;:&quot;authored fixtures&quot;},{&quot;accent&quot;:&quot;#F2B134&quot;,&quot;details&quot;:[&quot;implemented shared-wall MAE 0.000 m&quot;,&quot;small deterministic fixture set&quot;],&quot;headline&quot;:&quot;Naive wall MAE 6.333 m&quot;,&quot;tag&quot;:&quot;geometry baseline&quot;},{&quot;accent&quot;:&quot;#E66A47&quot;,&quot;details&quot;:[&quot;rates and tenders are synthetic&quot;,&quot;qualified QS review required&quot;],&quot;headline&quot;:&quot;Exceptions, not advice&quot;,&quot;tag&quot;:&quot;commercial boundary&quot;}],&quot;sources&quot;:[&quot;evaluation_summary.json&quot;,&quot;sample plan + rates&quot;],&quot;stages&quot;:[{&quot;details&quot;:[&quot;scale + room ids&quot;,&quot;walls and openings&quot;,&quot;axis-aligned rectangles&quot;],&quot;output&quot;:&quot;validated plan schema&quot;,&quot;tag&quot;:&quot;plan&quot;,&quot;title&quot;:[&quot;Typed floor-plan&quot;,&quot;geometry&quot;]},{&quot;details&quot;:[&quot;split shared boundaries&quot;,&quot;classify ext. / partition&quot;,&quot;reject invalid openings&quot;],&quot;output&quot;:&quot;measured source segments&quot;,&quot;tag&quot;:&quot;geometry&quot;,&quot;title&quot;:[&quot;Atomic wall&quot;,&quot;segmentation&quot;]},{&quot;details&quot;:[&quot;opening deductions&quot;,&quot;seven bounded items&quot;,&quot;source geometry ids&quot;],&quot;output&quot;:&quot;auditable quantities&quot;,&quot;tag&quot;:&quot;takeoff&quot;,&quot;title&quot;:[&quot;Formula-backed&quot;,&quot;quantity lines&quot;]},{&quot;details&quot;:[&quot;versioned rate records&quot;,&quot;provenance + currency&quot;,&quot;illustrative uncertainty&quot;],&quot;output&quot;:&quot;bounded cost estimate&quot;,&quot;tag&quot;:&quot;cost&quot;,&quot;title&quot;:[&quot;Unit-safe rate&quot;,&quot;build-up&quot;]},{&quot;details&quot;:[&quot;missing / extra lines&quot;,&quot;high / low ratio flags&quot;,&quot;no bidder ranking&quot;],&quot;output&quot;:&quot;human review cases&quot;,&quot;tag&quot;:&quot;tender review&quot;,&quot;title&quot;:[&quot;Explainable&quot;,&quot;exception queue&quot;]}],&quot;subtitle&quot;:&quot;How explicit vector geometry becomes traceable quantities and review exceptions&quot;,&quot;title&quot;:&quot;QS Takeoff and Tender Analysis Workbench&quot;}</metadata>
<title id="map-title">QS Takeoff and Tender Analysis Workbench system map</title>
<desc id="map-desc">How explicit vector geometry becomes traceable quantities and review exceptions Five implementation stages lead to measured evidence, explicit controls, and a bounded professional-review output.</desc>
<defs>
  <filter id="card-shadow" x="-20%" y="-20%" width="140%" height="150%">
    <feDropShadow dx="0" dy="7" stdDeviation="8" flood-color="#0D1B2A" flood-opacity="0.11"/>
  </filter>
  <marker id="arrow" markerWidth="10" markerHeight="10" refX="8" refY="5" orient="auto">
    <path d="M 0 0 L 10 5 L 0 10 z" fill="#5D6A78"/>
  </marker>
  <style>
    text { font-family: Inter, "Segoe UI", Arial, sans-serif; letter-spacing: 0; }
    .title { font-size: 34px; font-weight: 700; fill: #FFFFFF; }
    .subtitle { font-size: 17px; font-weight: 400; fill: #C9D4DE; }
    .badge { font-size: 12px; font-weight: 700; fill: #FFFFFF; }
    .section { font-size: 13px; font-weight: 700; fill: #526170; }
    .tag { font-size: 11px; font-weight: 700; fill: #526170; }
    .stage-title { font-size: 20px; font-weight: 700; fill: #142333; }
    .detail { font-size: 14px; font-weight: 400; fill: #425466; }
    .output-label { font-size: 10px; font-weight: 700; fill: #6A7785; }
    .output { font-size: 13px; font-weight: 600; fill: #203447; }
    .connector { font-size: 11px; font-weight: 700; fill: #526170; }
    .panel-tag { font-size: 11px; font-weight: 700; fill: #526170; }
    .panel-headline { font-size: 22px; font-weight: 700; fill: #142333; }
    .panel-detail { font-size: 14px; font-weight: 400; fill: #425466; }
    .footer { font-size: 14px; font-weight: 600; fill: #26394C; }
    .source { font-size: 11px; font-weight: 600; fill: #6A7785; }
  </style>
</defs>
<rect width="1400" height="840" fill="#F4F7FA"/>
<rect width="1400" height="140" fill="#0D1B2A"/>
<path d="M0 140 H1400" stroke="#1E88E5" stroke-width="4"/>
<text x="40" y="58" class="title" text-anchor="start">QS Takeoff and Tender Analysis Workbench</text>
<text x="40" y="94" class="subtitle" text-anchor="start">How explicit vector geometry becomes traceable quantities and review exceptions</text>
<rect x="967.8" y="48" width="106.80000000000001" height="30" rx="4" fill="#20364A" stroke="#4C6478"/>
<text x="1021.1999999999999" y="68" class="badge" text-anchor="middle">VECTOR INPUT</text>
<rect x="1084.6" y="48" width="129.0" height="30" rx="4" fill="#20364A" stroke="#4C6478"/>
<text x="1149.1" y="68" class="badge" text-anchor="middle">SYNTHETIC RATES</text>
<rect x="1223.6" y="48" width="136.4" height="30" rx="4" fill="#20364A" stroke="#4C6478"/>
<text x="1291.8" y="68" class="badge" text-anchor="middle">NO AWARD RANKING</text>
<text x="40" y="172" class="section" text-anchor="start">EXECUTED SYSTEM JOURNEY</text>
<rect x="40" y="195" width="240" height="300" rx="7" fill="#FFFFFF" filter="url(#card-shadow)"/>
<rect x="40" y="195" width="240" height="7" rx="7" fill="#1E88E5"/>
<circle cx="70" cy="233" r="17" fill="#1E88E5"/>
<text x="70" y="238" class="badge" text-anchor="middle">1</text>
<text x="96" y="237" class="tag" text-anchor="start">PLAN</text>
<text x="60" y="287" class="stage-title" text-anchor="start">Typed floor-plan</text>
<text x="60" y="311" class="stage-title" text-anchor="start">geometry</text>
<path d="M60 346 H260" stroke="#DCE3EA"/>
<circle cx="65" cy="371" r="3" fill="#1E88E5"/>
<text x="78" y="376" class="detail" text-anchor="start">scale + room ids</text>
<circle cx="65" cy="395" r="3" fill="#1E88E5"/>
<text x="78" y="400" class="detail" text-anchor="start">walls and openings</text>
<circle cx="65" cy="419" r="3" fill="#1E88E5"/>
<text x="78" y="424" class="detail" text-anchor="start">axis-aligned rectangles</text>
<text x="60" y="464" class="output-label" text-anchor="start">OUTPUT</text>
<text x="60" y="484" class="output" text-anchor="start">validated plan schema</text>
<rect x="304" y="195" width="240" height="300" rx="7" fill="#FFFFFF" filter="url(#card-shadow)"/>
<rect x="304" y="195" width="240" height="7" rx="7" fill="#00A896"/>
<circle cx="334" cy="233" r="17" fill="#00A896"/>
<text x="334" y="238" class="badge" text-anchor="middle">2</text>
<text x="360" y="237" class="tag" text-anchor="start">GEOMETRY</text>
<text x="324" y="287" class="stage-title" text-anchor="start">Atomic wall</text>
<text x="324" y="311" class="stage-title" text-anchor="start">segmentation</text>
<path d="M324 346 H524" stroke="#DCE3EA"/>
<circle cx="329" cy="371" r="3" fill="#00A896"/>
<text x="342" y="376" class="detail" text-anchor="start">split shared boundaries</text>
<circle cx="329" cy="395" r="3" fill="#00A896"/>
<text x="342" y="400" class="detail" text-anchor="start">classify ext. / partition</text>
<circle cx="329" cy="419" r="3" fill="#00A896"/>
<text x="342" y="424" class="detail" text-anchor="start">reject invalid openings</text>
<text x="324" y="464" class="output-label" text-anchor="start">OUTPUT</text>
<text x="324" y="484" class="output" text-anchor="start">measured source segments</text>
<rect x="568" y="195" width="240" height="300" rx="7" fill="#FFFFFF" filter="url(#card-shadow)"/>
<rect x="568" y="195" width="240" height="7" rx="7" fill="#F2B134"/>
<circle cx="598" cy="233" r="17" fill="#F2B134"/>
<text x="598" y="238" class="badge" text-anchor="middle">3</text>
<text x="624" y="237" class="tag" text-anchor="start">TAKEOFF</text>
<text x="588" y="287" class="stage-title" text-anchor="start">Formula-backed</text>
<text x="588" y="311" class="stage-title" text-anchor="start">quantity lines</text>
<path d="M588 346 H788" stroke="#DCE3EA"/>
<circle cx="593" cy="371" r="3" fill="#F2B134"/>
<text x="606" y="376" class="detail" text-anchor="start">opening deductions</text>
<circle cx="593" cy="395" r="3" fill="#F2B134"/>
<text x="606" y="400" class="detail" text-anchor="start">seven bounded items</text>
<circle cx="593" cy="419" r="3" fill="#F2B134"/>
<text x="606" y="424" class="detail" text-anchor="start">source geometry ids</text>
<text x="588" y="464" class="output-label" text-anchor="start">OUTPUT</text>
<text x="588" y="484" class="output" text-anchor="start">auditable quantities</text>
<rect x="832" y="195" width="240" height="300" rx="7" fill="#FFFFFF" filter="url(#card-shadow)"/>
<rect x="832" y="195" width="240" height="7" rx="7" fill="#E66A47"/>
<circle cx="862" cy="233" r="17" fill="#E66A47"/>
<text x="862" y="238" class="badge" text-anchor="middle">4</text>
<text x="888" y="237" class="tag" text-anchor="start">COST</text>
<text x="852" y="287" class="stage-title" text-anchor="start">Unit-safe rate</text>
<text x="852" y="311" class="stage-title" text-anchor="start">build-up</text>
<path d="M852 346 H1052" stroke="#DCE3EA"/>
<circle cx="857" cy="371" r="3" fill="#E66A47"/>
<text x="870" y="376" class="detail" text-anchor="start">versioned rate records</text>
<circle cx="857" cy="395" r="3" fill="#E66A47"/>
<text x="870" y="400" class="detail" text-anchor="start">provenance + currency</text>
<circle cx="857" cy="419" r="3" fill="#E66A47"/>
<text x="870" y="424" class="detail" text-anchor="start">illustrative uncertainty</text>
<text x="852" y="464" class="output-label" text-anchor="start">OUTPUT</text>
<text x="852" y="484" class="output" text-anchor="start">bounded cost estimate</text>
<rect x="1096" y="195" width="240" height="300" rx="7" fill="#FFFFFF" filter="url(#card-shadow)"/>
<rect x="1096" y="195" width="240" height="7" rx="7" fill="#6B5DD3"/>
<circle cx="1126" cy="233" r="17" fill="#6B5DD3"/>
<text x="1126" y="238" class="badge" text-anchor="middle">5</text>
<text x="1152" y="237" class="tag" text-anchor="start">TENDER REVIEW</text>
<text x="1116" y="287" class="stage-title" text-anchor="start">Explainable</text>
<text x="1116" y="311" class="stage-title" text-anchor="start">exception queue</text>
<path d="M1116 346 H1316" stroke="#DCE3EA"/>
<circle cx="1121" cy="371" r="3" fill="#6B5DD3"/>
<text x="1134" y="376" class="detail" text-anchor="start">missing / extra lines</text>
<circle cx="1121" cy="395" r="3" fill="#6B5DD3"/>
<text x="1134" y="400" class="detail" text-anchor="start">high / low ratio flags</text>
<circle cx="1121" cy="419" r="3" fill="#6B5DD3"/>
<text x="1134" y="424" class="detail" text-anchor="start">no bidder ranking</text>
<text x="1116" y="464" class="output-label" text-anchor="start">OUTPUT</text>
<text x="1116" y="484" class="output" text-anchor="start">human review cases</text>
<path d="M287 348 H295" stroke="#5D6A78" stroke-width="2" marker-end="url(#arrow)"/>
<rect x="251.0" y="321" width="80" height="20" rx="3" fill="#F4F7FA"/>
<text x="291.0" y="335" class="connector" text-anchor="middle">VALIDATE</text>
<path d="M551 348 H559" stroke="#5D6A78" stroke-width="2" marker-end="url(#arrow)"/>
<rect x="515.0" y="321" width="80" height="20" rx="3" fill="#F4F7FA"/>
<text x="555.0" y="335" class="connector" text-anchor="middle">MEASURE</text>
<path d="M815 348 H823" stroke="#5D6A78" stroke-width="2" marker-end="url(#arrow)"/>
<rect x="779.0" y="321" width="80" height="20" rx="3" fill="#F4F7FA"/>
<text x="819.0" y="335" class="connector" text-anchor="middle">PRICE</text>
<path d="M1079 348 H1087" stroke="#5D6A78" stroke-width="2" marker-end="url(#arrow)"/>
<rect x="1043.0" y="321" width="80" height="20" rx="3" fill="#F4F7FA"/>
<text x="1083.0" y="335" class="connector" text-anchor="middle">COMPARE</text>
<text x="40" y="542" class="section" text-anchor="start">PROOF, CONTROLS, AND FAILURE BOUNDARIES</text>
<rect x="40" y="565" width="424" height="168" rx="7" fill="#FFFFFF" stroke="#D8E0E8"/>
<rect x="40" y="565" width="8" height="168" rx="4" fill="#00A896"/>
<text x="68" y="595" class="panel-tag" text-anchor="start">AUTHORED FIXTURES</text>
<text x="68" y="630" class="panel-headline" text-anchor="start">21 quantity lines</text>
<text x="68" y="663" class="panel-detail" text-anchor="start">exact-match rate 100.0%</text>
<text x="68" y="686" class="panel-detail" text-anchor="start">cost total MAE SGD 0.00</text>
<rect x="488" y="565" width="424" height="168" rx="7" fill="#FFFFFF" stroke="#D8E0E8"/>
<rect x="488" y="565" width="8" height="168" rx="4" fill="#F2B134"/>
<text x="516" y="595" class="panel-tag" text-anchor="start">GEOMETRY BASELINE</text>
<text x="516" y="630" class="panel-headline" text-anchor="start">Naive wall MAE 6.333 m</text>
<text x="516" y="663" class="panel-detail" text-anchor="start">implemented shared-wall MAE 0.000 m</text>
<text x="516" y="686" class="panel-detail" text-anchor="start">small deterministic fixture set</text>
<rect x="936" y="565" width="424" height="168" rx="7" fill="#FFFFFF" stroke="#D8E0E8"/>
<rect x="936" y="565" width="8" height="168" rx="4" fill="#E66A47"/>
<text x="964" y="595" class="panel-tag" text-anchor="start">COMMERCIAL BOUNDARY</text>
<text x="964" y="630" class="panel-headline" text-anchor="start">Exceptions, not advice</text>
<text x="964" y="663" class="panel-detail" text-anchor="start">rates and tenders are synthetic</text>
<text x="964" y="686" class="panel-detail" text-anchor="start">qualified QS review required</text>
<rect x="40" y="770" width="1320" height="45" rx="6" fill="#E7EDF3"/>
<rect x="40" y="770" width="8" height="45" rx="4" fill="#E66A47"/>
<text x="64" y="798" class="footer" text-anchor="start">HUMAN REVIEW BOUNDARY: A qualified QS verifies measurement rules, rates, scope, risk, and commercial decisions.</text>
<text x="1360" y="829" class="source" text-anchor="end">GENERATED FROM evaluation_summary.json + sample plan + rates</text>
</svg>
