<svg xmlns="http://www.w3.org/2000/svg" width="1200" height="650" viewBox="0 0 1200 650" role="img" aria-labelledby="title desc">
  <title id="title">Urban Infill Office massing option co-011-057</title>
  <desc id="desc">Generated plan and isometric diagram from synthetic project constraints.</desc>
  <rect width="1200" height="650" fill="#f4f1e9"/>
  <text x="34" y="44" font-family="Arial, sans-serif" font-size="14" font-weight="700" fill="#e85d3f">CONSTRAINT-AWARE MASSING · SYNTHETIC SCENARIO</text>
  <text x="34" y="80" font-family="Arial, sans-serif" font-size="30" font-weight="700" fill="#17231f">Urban Infill Office</text>
  <text x="34" y="106" font-family="Arial, sans-serif" font-size="14" fill="#56645d">Twin Bar · co-011-057</text>
  <rect x="1020" y="34" width="145" height="34" rx="3" fill="#2f7d6d"/>
  <text x="1092" y="56" text-anchor="middle" font-family="Arial, sans-serif" font-size="12" font-weight="700" fill="#ffffff">FEASIBLE</text>
  <g font-family="Arial, sans-serif"><rect x="50.0" y="203.3" width="470.0" height="313.3" fill="#f7f5ef" stroke="#17231f" stroke-width="2"/><rect x="82.6" y="242.5" width="404.7" height="221.9" fill="none" stroke="#8d9a91" stroke-dasharray="7 5" stroke-width="1.5"/><rect x="116.7" y="365.4" width="272.0" height="61.8" fill="#e85d3f" fill-opacity="0.88" stroke="#17231f" stroke-width="1.5"/><text x="252.7" y="396.3" text-anchor="middle" dominant-baseline="middle" font-size="12" font-weight="700" fill="#ffffff">A · 12F</text><rect x="116.7" y="260.7" width="272.0" height="61.8" fill="#e9a23b" fill-opacity="0.88" stroke="#17231f" stroke-width="1.5"/><text x="252.7" y="291.6" text-anchor="middle" dominant-baseline="middle" font-size="12" font-weight="700" fill="#ffffff">B · 12F</text><circle cx="115.3" cy="516.7" r="7" fill="#2f7d6d" stroke="#ffffff" stroke-width="2"/><text x="125.3" y="507.7" font-size="10" font-weight="700" fill="#17231f">IN</text><circle cx="454.7" cy="516.7" r="7" fill="#5b6da8" stroke="#ffffff" stroke-width="2"/><text x="464.7" y="507.7" font-size="10" font-weight="700" fill="#17231f">OUT</text></g>
  <text x="620" y="148" font-family="Arial, sans-serif" font-size="12" font-weight="700" fill="#66736c">MASSING STUDY</text>
  <g><polygon points="860.0,215.0 1160.0,359.0 960.0,455.0 660.0,311.0" fill="#eef2ed" stroke="#86938b" stroke-width="1.5"/><polygon points="1019.1,346.2 979.7,365.1 979.7,304.2 1019.1,285.3" fill="#263d35" fill-opacity="0.78"/><polygon points="979.7,365.1 806.0,281.8 806.0,220.9 979.7,304.2" fill="#17231f" fill-opacity="0.70"/><polygon points="845.5,201.9 1019.1,285.3 979.7,304.2 806.0,220.9" fill="#e85d3f" stroke="#17231f" stroke-width="1.1"/><polygon points="952.3,378.3 912.8,397.2 912.8,336.3 952.3,317.4" fill="#263d35" fill-opacity="0.78"/><polygon points="912.8,397.2 739.2,313.8 739.2,252.9 912.8,336.3" fill="#17231f" fill-opacity="0.70"/><polygon points="778.6,234.0 952.3,317.4 912.8,336.3 739.2,252.9" fill="#e9a23b" stroke="#17231f" stroke-width="1.1"/></g>
  <g font-family="Arial, sans-serif"><rect x="620" y="445" width="162" height="62" rx="4" fill="#ffffff" stroke="#d9ded9"/><text x="632" y="467" font-size="11" fill="#66736c">GFA</text><text x="632" y="491" font-size="18" font-weight="700" fill="#17231f">9474 m2</text><rect x="800" y="445" width="162" height="62" rx="4" fill="#ffffff" stroke="#d9ded9"/><text x="812" y="467" font-size="11" fill="#66736c">Target error</text><text x="812" y="491" font-size="18" font-weight="700" fill="#17231f">0.3%</text><rect x="980" y="445" width="162" height="62" rx="4" fill="#ffffff" stroke="#d9ded9"/><text x="992" y="467" font-size="11" fill="#66736c">Coverage</text><text x="992" y="491" font-size="18" font-weight="700" fill="#17231f">22.8%</text><rect x="620" y="523" width="162" height="62" rx="4" fill="#ffffff" stroke="#d9ded9"/><text x="632" y="545" font-size="11" fill="#66736c">Solar proxy</text><text x="632" y="569" font-size="18" font-weight="700" fill="#17231f">0.498</text><rect x="800" y="523" width="162" height="62" rx="4" fill="#ffffff" stroke="#d9ded9"/><text x="812" y="545" font-size="11" fill="#66736c">Daylight proxy</text><text x="812" y="569" font-size="18" font-weight="700" fill="#17231f">1.000</text><rect x="980" y="523" width="162" height="62" rx="4" fill="#ffffff" stroke="#d9ded9"/><text x="992" y="545" font-size="11" fill="#66736c">Wind proxy</text><text x="992" y="569" font-size="18" font-weight="700" fill="#17231f">0.402</text></g>
  <text x="34" y="628" font-family="Arial, sans-serif" font-size="11" fill="#66736c">Proxy analysis only. Not code certification, detailed egress analysis, daylight simulation, CFD, structure, or constructability validation.</text>
</svg>