<?xml version="1.0" encoding="UTF-8"?>
<svg xmlns="http://www.w3.org/2000/svg" width="1400" height="840" viewBox="0 0 1400 840" role="img" aria-labelledby="map-title map-desc">
<metadata>{&quot;badges&quot;:[&quot;FIXED HOLDOUT&quot;,&quot;STATE-RENDERED PIXELS&quot;,&quot;MUJOCO REPLAY&quot;],&quot;boundary&quot;:&quot;Simulation results do not establish perception, robot control, or physical-site safety.&quot;,&quot;connectors&quot;:[&quot;parse&quot;,&quot;imitate&quot;,&quot;rank&quot;,&quot;replay&quot;],&quot;evidence&quot;:[{&quot;accent&quot;:&quot;#00A896&quot;,&quot;details&quot;:[&quot;96 unseen grid scenarios&quot;,&quot;943 filter interventions&quot;],&quot;headline&quot;:&quot;76.0% success&quot;,&quot;tag&quot;:&quot;best learned rollout&quot;},{&quot;accent&quot;:&quot;#F2B134&quot;,&quot;details&quot;:[&quot;filtered shift success 42.7%&quot;,&quot;failed result remains published&quot;],&quot;headline&quot;:&quot;RGB raw success 0.0%&quot;,&quot;tag&quot;:&quot;appearance shift&quot;},{&quot;accent&quot;:&quot;#E66A47&quot;,&quot;details&quot;:[&quot;pixels come from state&quot;,&quot;no ROS, hardware, or safety claim&quot;],&quot;headline&quot;:&quot;Planar replay only&quot;,&quot;tag&quot;:&quot;simulation boundary&quot;}],&quot;sources&quot;:[&quot;behavior_cloning_eval_summary.json&quot;,&quot;physics replay&quot;],&quot;stages&quot;:[{&quot;details&quot;:[&quot;delivery / inspection&quot;,&quot;charging scenarios&quot;,&quot;privileged simulator state&quot;],&quot;output&quot;:&quot;typed task + observation&quot;,&quot;tag&quot;:&quot;task + world&quot;,&quot;title&quot;:[&quot;Language task and&quot;,&quot;grid state&quot;]},{&quot;details&quot;:[&quot;192 training scenarios&quot;,&quot;1,830 expert steps&quot;,&quot;disjoint holdout seeds&quot;],&quot;output&quot;:&quot;state-action dataset&quot;,&quot;tag&quot;:&quot;demonstrations&quot;,&quot;title&quot;:[&quot;Shared A* expert&quot;,&quot;trajectories&quot;]},{&quot;details&quot;:[&quot;engineered random forest&quot;,&quot;world + local MLPs&quot;,&quot;rendered RGB MLP&quot;],&quot;output&quot;:&quot;ranked discrete actions&quot;,&quot;tag&quot;:&quot;policies&quot;,&quot;title&quot;:[&quot;Four observation&quot;,&quot;families&quot;]},{&quot;details&quot;:[&quot;rule-based rejection&quot;,&quot;interventions counted&quot;,&quot;no expert route fallback&quot;],&quot;output&quot;:&quot;executed grid trace&quot;,&quot;tag&quot;:&quot;action boundary&quot;,&quot;title&quot;:[&quot;Raw or full-state&quot;,&quot;filtered command&quot;]},{&quot;details&quot;:[&quot;success + unsafe rate&quot;,&quot;appearance shift&quot;,&quot;rigid contact telemetry&quot;],&quot;output&quot;:&quot;failures + model cards&quot;,&quot;tag&quot;:&quot;evaluation&quot;,&quot;title&quot;:[&quot;Holdout rollouts&quot;,&quot;and physics replay&quot;]}],&quot;subtitle&quot;:&quot;How observation choice and an action filter change closed-loop behavior&quot;,&quot;title&quot;:&quot;Construction Embodied Agent Simulator&quot;}</metadata>
<title id="map-title">Construction Embodied Agent Simulator system map</title>
<desc id="map-desc">How observation choice and an action filter change closed-loop behavior Five implementation stages lead to measured evidence, explicit controls, and a bounded professional-review output.</desc>
<defs>
  <filter id="card-shadow" x="-20%" y="-20%" width="140%" height="150%">
    <feDropShadow dx="0" dy="7" stdDeviation="8" flood-color="#0D1B2A" flood-opacity="0.11"/>
  </filter>
  <marker id="arrow" markerWidth="10" markerHeight="10" refX="8" refY="5" orient="auto">
    <path d="M 0 0 L 10 5 L 0 10 z" fill="#5D6A78"/>
  </marker>
  <style>
    text { font-family: Inter, "Segoe UI", Arial, sans-serif; letter-spacing: 0; }
    .title { font-size: 34px; font-weight: 700; fill: #FFFFFF; }
    .subtitle { font-size: 17px; font-weight: 400; fill: #C9D4DE; }
    .badge { font-size: 12px; font-weight: 700; fill: #FFFFFF; }
    .section { font-size: 13px; font-weight: 700; fill: #526170; }
    .tag { font-size: 11px; font-weight: 700; fill: #526170; }
    .stage-title { font-size: 20px; font-weight: 700; fill: #142333; }
    .detail { font-size: 14px; font-weight: 400; fill: #425466; }
    .output-label { font-size: 10px; font-weight: 700; fill: #6A7785; }
    .output { font-size: 13px; font-weight: 600; fill: #203447; }
    .connector { font-size: 11px; font-weight: 700; fill: #526170; }
    .panel-tag { font-size: 11px; font-weight: 700; fill: #526170; }
    .panel-headline { font-size: 22px; font-weight: 700; fill: #142333; }
    .panel-detail { font-size: 14px; font-weight: 400; fill: #425466; }
    .footer { font-size: 14px; font-weight: 600; fill: #26394C; }
    .source { font-size: 11px; font-weight: 600; fill: #6A7785; }
  </style>
</defs>
<rect width="1400" height="840" fill="#F4F7FA"/>
<rect width="1400" height="140" fill="#0D1B2A"/>
<path d="M0 140 H1400" stroke="#1E88E5" stroke-width="4"/>
<text x="40" y="58" class="title" text-anchor="start">Construction Embodied Agent Simulator</text>
<text x="40" y="94" class="subtitle" text-anchor="start">How observation choice and an action filter change closed-loop behavior</text>
<rect x="938.2" y="48" width="114.2" height="30" rx="4" fill="#20364A" stroke="#4C6478"/>
<text x="995.3000000000001" y="68" class="badge" text-anchor="middle">FIXED HOLDOUT</text>
<rect x="1062.4" y="48" width="173.4" height="30" rx="4" fill="#20364A" stroke="#4C6478"/>
<text x="1149.1000000000001" y="68" class="badge" text-anchor="middle">STATE-RENDERED PIXELS</text>
<rect x="1245.8000000000002" y="48" width="114.2" height="30" rx="4" fill="#20364A" stroke="#4C6478"/>
<text x="1302.9" y="68" class="badge" text-anchor="middle">MUJOCO REPLAY</text>
<text x="40" y="172" class="section" text-anchor="start">EXECUTED SYSTEM JOURNEY</text>
<rect x="40" y="195" width="240" height="300" rx="7" fill="#FFFFFF" filter="url(#card-shadow)"/>
<rect x="40" y="195" width="240" height="7" rx="7" fill="#1E88E5"/>
<circle cx="70" cy="233" r="17" fill="#1E88E5"/>
<text x="70" y="238" class="badge" text-anchor="middle">1</text>
<text x="96" y="237" class="tag" text-anchor="start">TASK + WORLD</text>
<text x="60" y="287" class="stage-title" text-anchor="start">Language task and</text>
<text x="60" y="311" class="stage-title" text-anchor="start">grid state</text>
<path d="M60 346 H260" stroke="#DCE3EA"/>
<circle cx="65" cy="371" r="3" fill="#1E88E5"/>
<text x="78" y="376" class="detail" text-anchor="start">delivery / inspection</text>
<circle cx="65" cy="395" r="3" fill="#1E88E5"/>
<text x="78" y="400" class="detail" text-anchor="start">charging scenarios</text>
<circle cx="65" cy="419" r="3" fill="#1E88E5"/>
<text x="78" y="424" class="detail" text-anchor="start">privileged simulator state</text>
<text x="60" y="464" class="output-label" text-anchor="start">OUTPUT</text>
<text x="60" y="484" class="output" text-anchor="start">typed task + observation</text>
<rect x="304" y="195" width="240" height="300" rx="7" fill="#FFFFFF" filter="url(#card-shadow)"/>
<rect x="304" y="195" width="240" height="7" rx="7" fill="#00A896"/>
<circle cx="334" cy="233" r="17" fill="#00A896"/>
<text x="334" y="238" class="badge" text-anchor="middle">2</text>
<text x="360" y="237" class="tag" text-anchor="start">DEMONSTRATIONS</text>
<text x="324" y="287" class="stage-title" text-anchor="start">Shared A* expert</text>
<text x="324" y="311" class="stage-title" text-anchor="start">trajectories</text>
<path d="M324 346 H524" stroke="#DCE3EA"/>
<circle cx="329" cy="371" r="3" fill="#00A896"/>
<text x="342" y="376" class="detail" text-anchor="start">192 training scenarios</text>
<circle cx="329" cy="395" r="3" fill="#00A896"/>
<text x="342" y="400" class="detail" text-anchor="start">1,830 expert steps</text>
<circle cx="329" cy="419" r="3" fill="#00A896"/>
<text x="342" y="424" class="detail" text-anchor="start">disjoint holdout seeds</text>
<text x="324" y="464" class="output-label" text-anchor="start">OUTPUT</text>
<text x="324" y="484" class="output" text-anchor="start">state-action dataset</text>
<rect x="568" y="195" width="240" height="300" rx="7" fill="#FFFFFF" filter="url(#card-shadow)"/>
<rect x="568" y="195" width="240" height="7" rx="7" fill="#F2B134"/>
<circle cx="598" cy="233" r="17" fill="#F2B134"/>
<text x="598" y="238" class="badge" text-anchor="middle">3</text>
<text x="624" y="237" class="tag" text-anchor="start">POLICIES</text>
<text x="588" y="287" class="stage-title" text-anchor="start">Four observation</text>
<text x="588" y="311" class="stage-title" text-anchor="start">families</text>
<path d="M588 346 H788" stroke="#DCE3EA"/>
<circle cx="593" cy="371" r="3" fill="#F2B134"/>
<text x="606" y="376" class="detail" text-anchor="start">engineered random forest</text>
<circle cx="593" cy="395" r="3" fill="#F2B134"/>
<text x="606" y="400" class="detail" text-anchor="start">world + local MLPs</text>
<circle cx="593" cy="419" r="3" fill="#F2B134"/>
<text x="606" y="424" class="detail" text-anchor="start">rendered RGB MLP</text>
<text x="588" y="464" class="output-label" text-anchor="start">OUTPUT</text>
<text x="588" y="484" class="output" text-anchor="start">ranked discrete actions</text>
<rect x="832" y="195" width="240" height="300" rx="7" fill="#FFFFFF" filter="url(#card-shadow)"/>
<rect x="832" y="195" width="240" height="7" rx="7" fill="#E66A47"/>
<circle cx="862" cy="233" r="17" fill="#E66A47"/>
<text x="862" y="238" class="badge" text-anchor="middle">4</text>
<text x="888" y="237" class="tag" text-anchor="start">ACTION BOUNDARY</text>
<text x="852" y="287" class="stage-title" text-anchor="start">Raw or full-state</text>
<text x="852" y="311" class="stage-title" text-anchor="start">filtered command</text>
<path d="M852 346 H1052" stroke="#DCE3EA"/>
<circle cx="857" cy="371" r="3" fill="#E66A47"/>
<text x="870" y="376" class="detail" text-anchor="start">rule-based rejection</text>
<circle cx="857" cy="395" r="3" fill="#E66A47"/>
<text x="870" y="400" class="detail" text-anchor="start">interventions counted</text>
<circle cx="857" cy="419" r="3" fill="#E66A47"/>
<text x="870" y="424" class="detail" text-anchor="start">no expert route fallback</text>
<text x="852" y="464" class="output-label" text-anchor="start">OUTPUT</text>
<text x="852" y="484" class="output" text-anchor="start">executed grid trace</text>
<rect x="1096" y="195" width="240" height="300" rx="7" fill="#FFFFFF" filter="url(#card-shadow)"/>
<rect x="1096" y="195" width="240" height="7" rx="7" fill="#6B5DD3"/>
<circle cx="1126" cy="233" r="17" fill="#6B5DD3"/>
<text x="1126" y="238" class="badge" text-anchor="middle">5</text>
<text x="1152" y="237" class="tag" text-anchor="start">EVALUATION</text>
<text x="1116" y="287" class="stage-title" text-anchor="start">Holdout rollouts</text>
<text x="1116" y="311" class="stage-title" text-anchor="start">and physics replay</text>
<path d="M1116 346 H1316" stroke="#DCE3EA"/>
<circle cx="1121" cy="371" r="3" fill="#6B5DD3"/>
<text x="1134" y="376" class="detail" text-anchor="start">success + unsafe rate</text>
<circle cx="1121" cy="395" r="3" fill="#6B5DD3"/>
<text x="1134" y="400" class="detail" text-anchor="start">appearance shift</text>
<circle cx="1121" cy="419" r="3" fill="#6B5DD3"/>
<text x="1134" y="424" class="detail" text-anchor="start">rigid contact telemetry</text>
<text x="1116" y="464" class="output-label" text-anchor="start">OUTPUT</text>
<text x="1116" y="484" class="output" text-anchor="start">failures + model cards</text>
<path d="M287 348 H295" stroke="#5D6A78" stroke-width="2" marker-end="url(#arrow)"/>
<rect x="251.0" y="321" width="80" height="20" rx="3" fill="#F4F7FA"/>
<text x="291.0" y="335" class="connector" text-anchor="middle">PARSE</text>
<path d="M551 348 H559" stroke="#5D6A78" stroke-width="2" marker-end="url(#arrow)"/>
<rect x="515.0" y="321" width="80" height="20" rx="3" fill="#F4F7FA"/>
<text x="555.0" y="335" class="connector" text-anchor="middle">IMITATE</text>
<path d="M815 348 H823" stroke="#5D6A78" stroke-width="2" marker-end="url(#arrow)"/>
<rect x="779.0" y="321" width="80" height="20" rx="3" fill="#F4F7FA"/>
<text x="819.0" y="335" class="connector" text-anchor="middle">RANK</text>
<path d="M1079 348 H1087" stroke="#5D6A78" stroke-width="2" marker-end="url(#arrow)"/>
<rect x="1043.0" y="321" width="80" height="20" rx="3" fill="#F4F7FA"/>
<text x="1083.0" y="335" class="connector" text-anchor="middle">REPLAY</text>
<text x="40" y="542" class="section" text-anchor="start">PROOF, CONTROLS, AND FAILURE BOUNDARIES</text>
<rect x="40" y="565" width="424" height="168" rx="7" fill="#FFFFFF" stroke="#D8E0E8"/>
<rect x="40" y="565" width="8" height="168" rx="4" fill="#00A896"/>
<text x="68" y="595" class="panel-tag" text-anchor="start">BEST LEARNED ROLLOUT</text>
<text x="68" y="630" class="panel-headline" text-anchor="start">76.0% success</text>
<text x="68" y="663" class="panel-detail" text-anchor="start">96 unseen grid scenarios</text>
<text x="68" y="686" class="panel-detail" text-anchor="start">943 filter interventions</text>
<rect x="488" y="565" width="424" height="168" rx="7" fill="#FFFFFF" stroke="#D8E0E8"/>
<rect x="488" y="565" width="8" height="168" rx="4" fill="#F2B134"/>
<text x="516" y="595" class="panel-tag" text-anchor="start">APPEARANCE SHIFT</text>
<text x="516" y="630" class="panel-headline" text-anchor="start">RGB raw success 0.0%</text>
<text x="516" y="663" class="panel-detail" text-anchor="start">filtered shift success 42.7%</text>
<text x="516" y="686" class="panel-detail" text-anchor="start">failed result remains published</text>
<rect x="936" y="565" width="424" height="168" rx="7" fill="#FFFFFF" stroke="#D8E0E8"/>
<rect x="936" y="565" width="8" height="168" rx="4" fill="#E66A47"/>
<text x="964" y="595" class="panel-tag" text-anchor="start">SIMULATION BOUNDARY</text>
<text x="964" y="630" class="panel-headline" text-anchor="start">Planar replay only</text>
<text x="964" y="663" class="panel-detail" text-anchor="start">pixels come from state</text>
<text x="964" y="686" class="panel-detail" text-anchor="start">no ROS, hardware, or safety claim</text>
<rect x="40" y="770" width="1320" height="45" rx="6" fill="#E7EDF3"/>
<rect x="40" y="770" width="8" height="45" rx="4" fill="#E66A47"/>
<text x="64" y="798" class="footer" text-anchor="start">HUMAN REVIEW BOUNDARY: Simulation results do not establish perception, robot control, or physical-site safety.</text>
<text x="1360" y="829" class="source" text-anchor="end">GENERATED FROM behavior_cloning_eval_summary.json + physics replay</text>
</svg>
