<svg xmlns="http://www.w3.org/2000/svg" width="1200" height="535" viewBox="0 0 1200 535" role="img" aria-labelledby="title">
  <title id="title">Pareto option comparison for Urban Infill Office</title>
  <rect width="1200" height="535" fill="#eef2ed"/>
  <text x="25" y="34" font-family="Arial, sans-serif" font-size="13" font-weight="700" fill="#2f7d6d">PARETO OPTION COMPARISON · SYNTHETIC SCENARIO</text>
  <text x="25" y="61" font-family="Arial, sans-serif" font-size="23" font-weight="700" fill="#17231f">Urban Infill Office</text>
  <rect x="25" y="80" width="365" height="420" rx="5" fill="#ffffff" stroke="#d7ddd8"/><text x="43" y="112" font-family="Arial, sans-serif" font-size="13" font-weight="700" fill="#e85d3f">OPTION 01</text><text x="43" y="140" font-family="Arial, sans-serif" font-size="20" font-weight="700" fill="#17231f">Twin Bar</text><text x="43" y="164" font-family="Arial, sans-serif" font-size="12" fill="#647169">Utility 0.784 · GFA error 0.3%</text><rect x="57.0" y="212.7" width="301.0" height="200.7" fill="#f7f5ef" stroke="#17231f" stroke-width="2"/><rect x="77.9" y="237.8" width="259.2" height="142.1" fill="none" stroke="#8d9a91" stroke-dasharray="7 5" stroke-width="1.5"/><rect x="99.7" y="316.5" width="174.2" height="39.6" fill="#e85d3f" fill-opacity="0.88" stroke="#17231f" stroke-width="1.5"/><rect x="99.7" y="249.4" width="174.2" height="39.6" fill="#e9a23b" fill-opacity="0.88" stroke="#17231f" stroke-width="1.5"/><circle cx="98.8" cy="413.3" r="7" fill="#2f7d6d" stroke="#ffffff" stroke-width="2"/><circle cx="316.2" cy="413.3" r="7" fill="#5b6da8" stroke="#ffffff" stroke-width="2"/><text x="43" y="476" font-family="Arial, sans-serif" font-size="11" fill="#647169">Solar 0.498 · Daylight 1.000 · Wind 0.402</text><rect x="415" y="80" width="365" height="420" rx="5" fill="#ffffff" stroke="#d7ddd8"/><text x="433" y="112" font-family="Arial, sans-serif" font-size="13" font-weight="700" fill="#e85d3f">OPTION 02</text><text x="433" y="140" font-family="Arial, sans-serif" font-size="20" font-weight="700" fill="#17231f">Twin Bar</text><text x="433" y="164" font-family="Arial, sans-serif" font-size="12" fill="#647169">Utility 0.783 · GFA error 1.6%</text><rect x="447.0" y="212.7" width="301.0" height="200.7" fill="#f7f5ef" stroke="#17231f" stroke-width="2"/><rect x="467.9" y="237.8" width="259.2" height="142.1" fill="none" stroke="#8d9a91" stroke-dasharray="7 5" stroke-width="1.5"/><rect x="542.1" y="331.8" width="175.8" height="40.0" fill="#e85d3f" fill-opacity="0.88" stroke="#17231f" stroke-width="1.5"/><rect x="542.1" y="271.3" width="175.8" height="40.0" fill="#e9a23b" fill-opacity="0.88" stroke="#17231f" stroke-width="1.5"/><circle cx="488.8" cy="413.3" r="7" fill="#2f7d6d" stroke="#ffffff" stroke-width="2"/><circle cx="706.2" cy="413.3" r="7" fill="#5b6da8" stroke="#ffffff" stroke-width="2"/><text x="433" y="476" font-family="Arial, sans-serif" font-size="11" fill="#647169">Solar 0.498 · Daylight 1.000 · Wind 0.395</text><rect x="805" y="80" width="365" height="420" rx="5" fill="#ffffff" stroke="#d7ddd8"/><text x="823" y="112" font-family="Arial, sans-serif" font-size="13" font-weight="700" fill="#e85d3f">OPTION 03</text><text x="823" y="140" font-family="Arial, sans-serif" font-size="20" font-weight="700" fill="#17231f">Twin Bar</text><text x="823" y="164" font-family="Arial, sans-serif" font-size="12" fill="#647169">Utility 0.777 · GFA error 3.9%</text><rect x="837.0" y="212.7" width="301.0" height="200.7" fill="#f7f5ef" stroke="#17231f" stroke-width="2"/><rect x="857.9" y="237.8" width="259.2" height="142.1" fill="none" stroke="#8d9a91" stroke-dasharray="7 5" stroke-width="1.5"/><rect x="906.9" y="243.4" width="51.7" height="128.5" fill="#e85d3f" fill-opacity="0.88" stroke="#17231f" stroke-width="1.5"/><rect x="987.0" y="243.4" width="51.7" height="128.5" fill="#e9a23b" fill-opacity="0.88" stroke="#17231f" stroke-width="1.5"/><circle cx="878.8" cy="413.3" r="7" fill="#2f7d6d" stroke="#ffffff" stroke-width="2"/><circle cx="1096.2" cy="413.3" r="7" fill="#5b6da8" stroke="#ffffff" stroke-width="2"/><text x="823" y="476" font-family="Arial, sans-serif" font-size="11" fill="#647169">Solar 0.491 · Daylight 0.871 · Wind 0.593</text>
</svg>