<svg xmlns="http://www.w3.org/2000/svg" width="1000" height="800" viewBox="0 0 1000 800" role="img" aria-labelledby="title desc">
  <title id="title">Construction-agent observation representation comparison</title>
  <desc id="desc">A synthetic construction grid, normal and shifted RGB crops, and measured engineered-state, semantic-raster, egocentric, and rendered-pixel policy results.</desc>
  <rect width="1000" height="800" fill="#f4f3ed"/>
  <rect width="1000" height="12" fill="#13221d"/>
  <text x="42" y="51" font-family="Arial, sans-serif" font-size="13" font-weight="700" fill="#e85d3f">OBSERVATION REPRESENTATION STUDY / SYNTHETIC SIMULATOR STATE</text>
  <text x="42" y="86" font-family="Arial, sans-serif" font-size="27" font-weight="700" fill="#13221d">Representation choices expose performance and brittleness</text>
  <rect x="42" y="112" width="52" height="52" fill="#58a58c" stroke="#e85d3f" stroke-width="4"/><text x="68.0" y="145" text-anchor="middle" font-family="Arial, sans-serif" font-size="15" font-weight="700" fill="#13221d">O</text><rect x="94" y="112" width="52" height="52" fill="#f8faf8" stroke="#c9d3ce" stroke-width="1"/><rect x="146" y="112" width="52" height="52" fill="#f8faf8" stroke="#c9d3ce" stroke-width="1"/><rect x="198" y="112" width="52" height="52" fill="#f8faf8" stroke="#c9d3ce" stroke-width="1"/><rect x="250" y="112" width="52" height="52" fill="#f8faf8" stroke="#c9d3ce" stroke-width="1"/><rect x="302" y="112" width="52" height="52" fill="#f8faf8" stroke="#c9d3ce" stroke-width="1"/><rect x="354" y="112" width="52" height="52" fill="#7fa8bd" stroke="#c9d3ce" stroke-width="1"/><text x="380.0" y="145" text-anchor="middle" font-family="Arial, sans-serif" font-size="15" font-weight="700" fill="#13221d">Z</text><circle cx="380.0" cy="138.0" r="13" fill="#ffffff" stroke="#267d6a" stroke-width="5"/><rect x="42" y="164" width="52" height="52" fill="#f8faf8" stroke="#c9d3ce" stroke-width="1"/><rect x="94" y="164" width="52" height="52" fill="#f8faf8" stroke="#c9d3ce" stroke-width="1"/><rect x="146" y="164" width="52" height="52" fill="#26322e" stroke="#c9d3ce" stroke-width="1"/><text x="172.0" y="197" text-anchor="middle" font-family="Arial, sans-serif" font-size="15" font-weight="700" fill="#13221d">X</text><rect x="198" y="164" width="52" height="52" fill="#f8faf8" stroke="#c9d3ce" stroke-width="1"/><rect x="250" y="164" width="52" height="52" fill="#f8faf8" stroke="#c9d3ce" stroke-width="1"/><rect x="302" y="164" width="52" height="52" fill="#f8faf8" stroke="#c9d3ce" stroke-width="1"/><rect x="354" y="164" width="52" height="52" fill="#d7e0dc" stroke="#c9d3ce" stroke-width="1"/><text x="380.0" y="197" text-anchor="middle" font-family="Arial, sans-serif" font-size="15" font-weight="700" fill="#13221d">S</text><rect x="42" y="216" width="52" height="52" fill="#f8faf8" stroke="#c9d3ce" stroke-width="1"/><rect x="94" y="216" width="52" height="52" fill="#26322e" stroke="#c9d3ce" stroke-width="1"/><text x="120.0" y="249" text-anchor="middle" font-family="Arial, sans-serif" font-size="15" font-weight="700" fill="#13221d">X</text><rect x="146" y="216" width="52" height="52" fill="#f8faf8" stroke="#c9d3ce" stroke-width="1"/><rect x="198" y="216" width="52" height="52" fill="#e76f51" stroke="#c9d3ce" stroke-width="1"/><text x="224.0" y="249" text-anchor="middle" font-family="Arial, sans-serif" font-size="15" font-weight="700" fill="#13221d">R</text><rect x="250" y="216" width="52" height="52" fill="#f8faf8" stroke="#c9d3ce" stroke-width="1"/><rect x="302" y="216" width="52" height="52" fill="#e76f51" stroke="#c9d3ce" stroke-width="1"/><text x="328.0" y="249" text-anchor="middle" font-family="Arial, sans-serif" font-size="15" font-weight="700" fill="#13221d">R</text><rect x="354" y="216" width="52" height="52" fill="#f8faf8" stroke="#c9d3ce" stroke-width="1"/><rect x="42" y="268" width="52" height="52" fill="#f8faf8" stroke="#c9d3ce" stroke-width="1"/><rect x="94" y="268" width="52" height="52" fill="#f8faf8" stroke="#c9d3ce" stroke-width="1"/><rect x="146" y="268" width="52" height="52" fill="#26322e" stroke="#c9d3ce" stroke-width="1"/><text x="172.0" y="301" text-anchor="middle" font-family="Arial, sans-serif" font-size="15" font-weight="700" fill="#13221d">X</text><rect x="198" y="268" width="52" height="52" fill="#f8faf8" stroke="#c9d3ce" stroke-width="1"/><rect x="250" y="268" width="52" height="52" fill="#f8faf8" stroke="#c9d3ce" stroke-width="1"/><rect x="302" y="268" width="52" height="52" fill="#f8faf8" stroke="#c9d3ce" stroke-width="1"/><rect x="354" y="268" width="52" height="52" fill="#f8faf8" stroke="#c9d3ce" stroke-width="1"/><rect x="42" y="320" width="52" height="52" fill="#f8faf8" stroke="#c9d3ce" stroke-width="1"/><rect x="94" y="320" width="52" height="52" fill="#f8faf8" stroke="#c9d3ce" stroke-width="1"/><rect x="146" y="320" width="52" height="52" fill="#26322e" stroke="#c9d3ce" stroke-width="1"/><text x="172.0" y="353" text-anchor="middle" font-family="Arial, sans-serif" font-size="15" font-weight="700" fill="#13221d">X</text><rect x="198" y="320" width="52" height="52" fill="#e9b44c" stroke="#c9d3ce" stroke-width="1"/><text x="224.0" y="353" text-anchor="middle" font-family="Arial, sans-serif" font-size="15" font-weight="700" fill="#13221d">W</text><rect x="250" y="320" width="52" height="52" fill="#f8faf8" stroke="#c9d3ce" stroke-width="1"/><rect x="302" y="320" width="52" height="52" fill="#d7e0dc" stroke="#c9d3ce" stroke-width="1"/><text x="328.0" y="353" text-anchor="middle" font-family="Arial, sans-serif" font-size="15" font-weight="700" fill="#13221d">S</text><rect x="354" y="320" width="52" height="52" fill="#e9b44c" stroke="#c9d3ce" stroke-width="1"/><text x="380.0" y="353" text-anchor="middle" font-family="Arial, sans-serif" font-size="15" font-weight="700" fill="#13221d">W</text><rect x="42" y="372" width="52" height="52" fill="#f8faf8" stroke="#c9d3ce" stroke-width="1"/><rect x="94" y="372" width="52" height="52" fill="#d7e0dc" stroke="#c9d3ce" stroke-width="1"/><text x="120.0" y="405" text-anchor="middle" font-family="Arial, sans-serif" font-size="15" font-weight="700" fill="#13221d">S</text><rect x="146" y="372" width="52" height="52" fill="#f8faf8" stroke="#c9d3ce" stroke-width="1"/><rect x="198" y="372" width="52" height="52" fill="#f8faf8" stroke="#c9d3ce" stroke-width="1"/><rect x="250" y="372" width="52" height="52" fill="#f8faf8" stroke="#c9d3ce" stroke-width="1"/><rect x="302" y="372" width="52" height="52" fill="#f8faf8" stroke="#c9d3ce" stroke-width="1"/><rect x="354" y="372" width="52" height="52" fill="#f8faf8" stroke="#c9d3ce" stroke-width="1"/><rect x="42" y="424" width="52" height="52" fill="#f8faf8" stroke="#c9d3ce" stroke-width="1"/><rect x="94" y="424" width="52" height="52" fill="#f8faf8" stroke="#c9d3ce" stroke-width="1"/><rect x="146" y="424" width="52" height="52" fill="#26322e" stroke="#c9d3ce" stroke-width="1"/><text x="172.0" y="457" text-anchor="middle" font-family="Arial, sans-serif" font-size="15" font-weight="700" fill="#13221d">X</text><rect x="198" y="424" width="52" height="52" fill="#f8faf8" stroke="#c9d3ce" stroke-width="1"/><rect x="250" y="424" width="52" height="52" fill="#f8faf8" stroke="#c9d3ce" stroke-width="1"/><rect x="302" y="424" width="52" height="52" fill="#7fa8bd" stroke="#c9d3ce" stroke-width="1"/><text x="328.0" y="457" text-anchor="middle" font-family="Arial, sans-serif" font-size="15" font-weight="700" fill="#13221d">Z</text><rect x="354" y="424" width="52" height="52" fill="#f8faf8" stroke="#c9d3ce" stroke-width="1"/><rect x="254" y="116" width="148" height="148" fill="none" stroke="#267d6a" stroke-width="3" stroke-dasharray="8 6"/>
  <text x="42" y="505" font-family="Arial, sans-serif" font-size="12" fill="#267d6a">Dashed outline: agent-centered 5 x 5 observation window</text>
  <text x="42" y="532" font-family="Arial, sans-serif" font-size="11" font-weight="700" fill="#13221d">DAY RGB</text>
  <text x="158" y="532" font-family="Arial, sans-serif" font-size="11" font-weight="700" fill="#13221d">UNSEEN WORK-LIGHT RGB</text>
  <rect x="42" y="548" width="8" height="8" fill="rgb(48,55,58)"/><rect x="50" y="548" width="8" height="8" fill="rgb(48,55,58)"/><rect x="58" y="548" width="8" height="8" fill="rgb(48,55,58)"/><rect x="66" y="548" width="8" height="8" fill="rgb(48,55,58)"/><rect x="74" y="548" width="8" height="8" fill="rgb(48,55,58)"/><rect x="82" y="548" width="8" height="8" fill="rgb(48,55,58)"/><rect x="90" y="548" width="8" height="8" fill="rgb(48,55,58)"/><rect x="98" y="548" width="8" height="8" fill="rgb(48,55,58)"/><rect x="106" y="548" width="8" height="8" fill="rgb(48,55,58)"/><rect x="114" y="548" width="8" height="8" fill="rgb(48,55,58)"/><rect x="42" y="556" width="8" height="8" fill="rgb(48,55,58)"/><rect x="50" y="556" width="8" height="8" fill="rgb(48,55,58)"/><rect x="58" y="556" width="8" height="8" fill="rgb(48,55,58)"/><rect x="66" y="556" width="8" height="8" fill="rgb(48,55,58)"/><rect x="74" y="556" width="8" height="8" fill="rgb(48,55,58)"/><rect x="82" y="556" width="8" height="8" fill="rgb(48,55,58)"/><rect x="90" y="556" width="8" height="8" fill="rgb(48,55,58)"/><rect x="98" y="556" width="8" height="8" fill="rgb(48,55,58)"/><rect x="106" y="556" width="8" height="8" fill="rgb(48,55,58)"/><rect x="114" y="556" width="8" height="8" fill="rgb(48,55,58)"/><rect x="42" y="564" width="8" height="8" fill="rgb(48,55,58)"/><rect x="50" y="564" width="8" height="8" fill="rgb(48,55,58)"/><rect x="58" y="564" width="8" height="8" fill="rgb(48,55,58)"/><rect x="66" y="564" width="8" height="8" fill="rgb(48,55,58)"/><rect x="74" y="564" width="8" height="8" fill="rgb(48,55,58)"/><rect x="82" y="564" width="8" height="8" fill="rgb(48,55,58)"/><rect x="90" y="564" width="8" height="8" fill="rgb(48,55,58)"/><rect x="98" y="564" width="8" height="8" fill="rgb(48,55,58)"/><rect x="106" y="564" width="8" height="8" fill="rgb(48,55,58)"/><rect x="114" y="564" width="8" height="8" fill="rgb(48,55,58)"/><rect x="42" y="572" width="8" height="8" fill="rgb(48,55,58)"/><rect x="50" y="572" width="8" height="8" fill="rgb(48,55,58)"/><rect x="58" y="572" width="8" height="8" fill="rgb(48,55,58)"/><rect x="66" y="572" width="8" height="8" fill="rgb(48,55,58)"/><rect x="74" y="572" width="8" height="8" fill="rgb(48,55,58)"/><rect x="82" y="572" width="8" height="8" fill="rgb(48,55,58)"/><rect x="90" y="572" width="8" height="8" fill="rgb(48,55,58)"/><rect x="98" y="572" width="8" height="8" fill="rgb(48,55,58)"/><rect x="106" y="572" width="8" height="8" fill="rgb(48,55,58)"/><rect x="114" y="572" width="8" height="8" fill="rgb(48,55,58)"/><rect x="42" y="580" width="8" height="8" fill="rgb(220,226,218)"/><rect x="50" y="580" width="8" height="8" fill="rgb(220,226,218)"/><rect x="58" y="580" width="8" height="8" fill="rgb(220,226,218)"/><rect x="66" y="580" width="8" height="8" fill="rgb(220,226,218)"/><rect x="74" y="580" width="8" height="8" fill="rgb(250,250,248)"/><rect x="82" y="580" width="8" height="8" fill="rgb(250,250,248)"/><rect x="90" y="580" width="8" height="8" fill="rgb(48,55,58)"/><rect x="98" y="580" width="8" height="8" fill="rgb(48,55,58)"/><rect x="106" y="580" width="8" height="8" fill="rgb(48,55,58)"/><rect x="114" y="580" width="8" height="8" fill="rgb(48,55,58)"/><rect x="42" y="588" width="8" height="8" fill="rgb(220,226,218)"/><rect x="50" y="588" width="8" height="8" fill="rgb(220,226,218)"/><rect x="58" y="588" width="8" height="8" fill="rgb(220,226,218)"/><rect x="66" y="588" width="8" height="8" fill="rgb(220,226,218)"/><rect x="74" y="588" width="8" height="8" fill="rgb(250,250,248)"/><rect x="82" y="588" width="8" height="8" fill="rgb(250,250,248)"/><rect x="90" y="588" width="8" height="8" fill="rgb(48,55,58)"/><rect x="98" y="588" width="8" height="8" fill="rgb(48,55,58)"/><rect x="106" y="588" width="8" height="8" fill="rgb(48,55,58)"/><rect x="114" y="588" width="8" height="8" fill="rgb(48,55,58)"/><rect x="42" y="596" width="8" height="8" fill="rgb(220,226,218)"/><rect x="50" y="596" width="8" height="8" fill="rgb(220,226,218)"/><rect x="58" y="596" width="8" height="8" fill="rgb(220,226,218)"/><rect x="66" y="596" width="8" height="8" fill="rgb(220,226,218)"/><rect x="74" y="596" width="8" height="8" fill="rgb(154,178,169)"/><rect x="82" y="596" width="8" height="8" fill="rgb(154,178,169)"/><rect x="90" y="596" width="8" height="8" fill="rgb(48,55,58)"/><rect x="98" y="596" width="8" height="8" fill="rgb(48,55,58)"/><rect x="106" y="596" width="8" height="8" fill="rgb(48,55,58)"/><rect x="114" y="596" width="8" height="8" fill="rgb(48,55,58)"/><rect x="42" y="604" width="8" height="8" fill="rgb(220,226,218)"/><rect x="50" y="604" width="8" height="8" fill="rgb(220,226,218)"/><rect x="58" y="604" width="8" height="8" fill="rgb(220,226,218)"/><rect x="66" y="604" width="8" height="8" fill="rgb(220,226,218)"/><rect x="74" y="604" width="8" height="8" fill="rgb(154,178,169)"/><rect x="82" y="604" width="8" height="8" fill="rgb(154,178,169)"/><rect x="90" y="604" width="8" height="8" fill="rgb(48,55,58)"/><rect x="98" y="604" width="8" height="8" fill="rgb(48,55,58)"/><rect x="106" y="604" width="8" height="8" fill="rgb(48,55,58)"/><rect x="114" y="604" width="8" height="8" fill="rgb(48,55,58)"/><rect x="42" y="612" width="8" height="8" fill="rgb(220,226,218)"/><rect x="50" y="612" width="8" height="8" fill="rgb(220,226,218)"/><rect x="58" y="612" width="8" height="8" fill="rgb(218,88,65)"/><rect x="66" y="612" width="8" height="8" fill="rgb(218,88,65)"/><rect x="74" y="612" width="8" height="8" fill="rgb(220,226,218)"/><rect x="82" y="612" width="8" height="8" fill="rgb(220,226,218)"/><rect x="90" y="612" width="8" height="8" fill="rgb(48,55,58)"/><rect x="98" y="612" width="8" height="8" fill="rgb(48,55,58)"/><rect x="106" y="612" width="8" height="8" fill="rgb(48,55,58)"/><rect x="114" y="612" width="8" height="8" fill="rgb(48,55,58)"/><rect x="42" y="620" width="8" height="8" fill="rgb(220,226,218)"/><rect x="50" y="620" width="8" height="8" fill="rgb(220,226,218)"/><rect x="58" y="620" width="8" height="8" fill="rgb(218,88,65)"/><rect x="66" y="620" width="8" height="8" fill="rgb(218,88,65)"/><rect x="74" y="620" width="8" height="8" fill="rgb(220,226,218)"/><rect x="82" y="620" width="8" height="8" fill="rgb(220,226,218)"/><rect x="90" y="620" width="8" height="8" fill="rgb(48,55,58)"/><rect x="98" y="620" width="8" height="8" fill="rgb(48,55,58)"/><rect x="106" y="620" width="8" height="8" fill="rgb(48,55,58)"/><rect x="114" y="620" width="8" height="8" fill="rgb(48,55,58)"/>
  <rect x="158" y="548" width="8" height="8" fill="rgb(16,20,29)"/><rect x="166" y="548" width="8" height="8" fill="rgb(16,20,29)"/><rect x="174" y="548" width="8" height="8" fill="rgb(16,20,29)"/><rect x="182" y="548" width="8" height="8" fill="rgb(16,20,29)"/><rect x="190" y="548" width="8" height="8" fill="rgb(16,20,29)"/><rect x="198" y="548" width="8" height="8" fill="rgb(16,20,29)"/><rect x="206" y="548" width="8" height="8" fill="rgb(16,20,29)"/><rect x="214" y="548" width="8" height="8" fill="rgb(16,20,29)"/><rect x="222" y="548" width="8" height="8" fill="rgb(16,20,29)"/><rect x="230" y="548" width="8" height="8" fill="rgb(16,20,29)"/><rect x="158" y="556" width="8" height="8" fill="rgb(16,20,29)"/><rect x="166" y="556" width="8" height="8" fill="rgb(16,20,29)"/><rect x="174" y="556" width="8" height="8" fill="rgb(16,20,29)"/><rect x="182" y="556" width="8" height="8" fill="rgb(16,20,29)"/><rect x="190" y="556" width="8" height="8" fill="rgb(16,20,29)"/><rect x="198" y="556" width="8" height="8" fill="rgb(16,20,29)"/><rect x="206" y="556" width="8" height="8" fill="rgb(16,20,29)"/><rect x="214" y="556" width="8" height="8" fill="rgb(16,20,29)"/><rect x="222" y="556" width="8" height="8" fill="rgb(16,20,29)"/><rect x="230" y="556" width="8" height="8" fill="rgb(16,20,29)"/><rect x="158" y="564" width="8" height="8" fill="rgb(16,20,29)"/><rect x="166" y="564" width="8" height="8" fill="rgb(16,20,29)"/><rect x="174" y="564" width="8" height="8" fill="rgb(16,20,29)"/><rect x="182" y="564" width="8" height="8" fill="rgb(16,20,29)"/><rect x="190" y="564" width="8" height="8" fill="rgb(16,20,29)"/><rect x="198" y="564" width="8" height="8" fill="rgb(16,20,29)"/><rect x="206" y="564" width="8" height="8" fill="rgb(16,20,29)"/><rect x="214" y="564" width="8" height="8" fill="rgb(16,20,29)"/><rect x="222" y="564" width="8" height="8" fill="rgb(16,20,29)"/><rect x="230" y="564" width="8" height="8" fill="rgb(16,20,29)"/><rect x="158" y="572" width="8" height="8" fill="rgb(16,20,29)"/><rect x="166" y="572" width="8" height="8" fill="rgb(16,20,29)"/><rect x="174" y="572" width="8" height="8" fill="rgb(16,20,29)"/><rect x="182" y="572" width="8" height="8" fill="rgb(16,20,29)"/><rect x="190" y="572" width="8" height="8" fill="rgb(16,20,29)"/><rect x="198" y="572" width="8" height="8" fill="rgb(16,20,29)"/><rect x="206" y="572" width="8" height="8" fill="rgb(16,20,29)"/><rect x="214" y="572" width="8" height="8" fill="rgb(16,20,29)"/><rect x="222" y="572" width="8" height="8" fill="rgb(16,20,29)"/><rect x="230" y="572" width="8" height="8" fill="rgb(16,20,29)"/><rect x="158" y="580" width="8" height="8" fill="rgb(95,83,61)"/><rect x="166" y="580" width="8" height="8" fill="rgb(95,83,61)"/><rect x="174" y="580" width="8" height="8" fill="rgb(95,83,61)"/><rect x="182" y="580" width="8" height="8" fill="rgb(95,83,61)"/><rect x="190" y="580" width="8" height="8" fill="rgb(228,246,255)"/><rect x="198" y="580" width="8" height="8" fill="rgb(228,246,255)"/><rect x="206" y="580" width="8" height="8" fill="rgb(16,20,29)"/><rect x="214" y="580" width="8" height="8" fill="rgb(16,20,29)"/><rect x="222" y="580" width="8" height="8" fill="rgb(16,20,29)"/><rect x="230" y="580" width="8" height="8" fill="rgb(16,20,29)"/><rect x="158" y="588" width="8" height="8" fill="rgb(95,83,61)"/><rect x="166" y="588" width="8" height="8" fill="rgb(95,83,61)"/><rect x="174" y="588" width="8" height="8" fill="rgb(95,83,61)"/><rect x="182" y="588" width="8" height="8" fill="rgb(95,83,61)"/><rect x="190" y="588" width="8" height="8" fill="rgb(228,246,255)"/><rect x="198" y="588" width="8" height="8" fill="rgb(228,246,255)"/><rect x="206" y="588" width="8" height="8" fill="rgb(16,20,29)"/><rect x="214" y="588" width="8" height="8" fill="rgb(16,20,29)"/><rect x="222" y="588" width="8" height="8" fill="rgb(16,20,29)"/><rect x="230" y="588" width="8" height="8" fill="rgb(16,20,29)"/><rect x="158" y="596" width="8" height="8" fill="rgb(95,83,61)"/><rect x="166" y="596" width="8" height="8" fill="rgb(95,83,61)"/><rect x="174" y="596" width="8" height="8" fill="rgb(95,83,61)"/><rect x="182" y="596" width="8" height="8" fill="rgb(95,83,61)"/><rect x="190" y="596" width="8" height="8" fill="rgb(87,111,118)"/><rect x="198" y="596" width="8" height="8" fill="rgb(87,111,118)"/><rect x="206" y="596" width="8" height="8" fill="rgb(16,20,29)"/><rect x="214" y="596" width="8" height="8" fill="rgb(16,20,29)"/><rect x="222" y="596" width="8" height="8" fill="rgb(16,20,29)"/><rect x="230" y="596" width="8" height="8" fill="rgb(16,20,29)"/><rect x="158" y="604" width="8" height="8" fill="rgb(95,83,61)"/><rect x="166" y="604" width="8" height="8" fill="rgb(95,83,61)"/><rect x="174" y="604" width="8" height="8" fill="rgb(95,83,61)"/><rect x="182" y="604" width="8" height="8" fill="rgb(95,83,61)"/><rect x="190" y="604" width="8" height="8" fill="rgb(87,111,118)"/><rect x="198" y="604" width="8" height="8" fill="rgb(87,111,118)"/><rect x="206" y="604" width="8" height="8" fill="rgb(16,20,29)"/><rect x="214" y="604" width="8" height="8" fill="rgb(16,20,29)"/><rect x="222" y="604" width="8" height="8" fill="rgb(16,20,29)"/><rect x="230" y="604" width="8" height="8" fill="rgb(16,20,29)"/><rect x="158" y="612" width="8" height="8" fill="rgb(95,83,61)"/><rect x="166" y="612" width="8" height="8" fill="rgb(95,83,61)"/><rect x="174" y="612" width="8" height="8" fill="rgb(204,48,98)"/><rect x="182" y="612" width="8" height="8" fill="rgb(204,48,98)"/><rect x="190" y="612" width="8" height="8" fill="rgb(95,83,61)"/><rect x="198" y="612" width="8" height="8" fill="rgb(95,83,61)"/><rect x="206" y="612" width="8" height="8" fill="rgb(16,20,29)"/><rect x="214" y="612" width="8" height="8" fill="rgb(16,20,29)"/><rect x="222" y="612" width="8" height="8" fill="rgb(16,20,29)"/><rect x="230" y="612" width="8" height="8" fill="rgb(16,20,29)"/><rect x="158" y="620" width="8" height="8" fill="rgb(95,83,61)"/><rect x="166" y="620" width="8" height="8" fill="rgb(95,83,61)"/><rect x="174" y="620" width="8" height="8" fill="rgb(204,48,98)"/><rect x="182" y="620" width="8" height="8" fill="rgb(204,48,98)"/><rect x="190" y="620" width="8" height="8" fill="rgb(95,83,61)"/><rect x="198" y="620" width="8" height="8" fill="rgb(95,83,61)"/><rect x="206" y="620" width="8" height="8" fill="rgb(16,20,29)"/><rect x="214" y="620" width="8" height="8" fill="rgb(16,20,29)"/><rect x="222" y="620" width="8" height="8" fill="rgb(16,20,29)"/><rect x="230" y="620" width="8" height="8" fill="rgb(16,20,29)"/>
  <text x="42" y="646" font-family="Arial, sans-serif" font-size="12" fill="#5f6e68">Actual 10 x 10 pixel inputs, enlarged with nearest-neighbor display.</text>
  <text x="430" y="128" font-family="Arial, sans-serif" font-size="13" font-weight="700" fill="#267d6a">OBSERVATION CONTRACTS</text>
  <text x="430" y="158" font-family="Arial, sans-serif" font-size="17" font-weight="700" fill="#13221d">World raster: 8 x 7 x 7 channels + 6 globals</text>
  <text x="430" y="184" font-family="Arial, sans-serif" font-size="17" font-weight="700" fill="#13221d">Egocentric: 8 x 5 x 5 channels + 10 globals</text>
  <text x="430" y="210" font-family="Arial, sans-serif" font-size="17" font-weight="700" fill="#13221d">RGB crop: 10 x 10 x 3 pixels + 10 globals</text>
  <text x="430" y="234" font-family="Arial, sans-serif" font-size="13" fill="#5f6e68">Task: deliver / synthetic renderer / no physical camera</text>
  <line x1="430" y1="254" x2="950" y2="254" stroke="#cad4cf"/>
  <text x="430" y="282" font-family="Arial, sans-serif" font-size="13" font-weight="700" fill="#e85d3f">SHARED 96-SCENARIO HOLDOUT</text>
  <text x="430" y="312" font-family="Arial, sans-serif" font-size="17" font-weight="700" fill="#13221d">Engineered state + random forest</text>
  <text x="430" y="336" font-family="Arial, sans-serif" font-size="13" fill="#5f6e68">Action accuracy 0.855 / filtered success 0.698</text>
  <text x="430" y="370" font-family="Arial, sans-serif" font-size="17" font-weight="700" fill="#13221d">World-frame raster + 64-unit MLP</text>
  <text x="430" y="394" font-family="Arial, sans-serif" font-size="13" fill="#5f6e68">Action accuracy 0.478 / filtered success 0.292</text>
  <text x="430" y="428" font-family="Arial, sans-serif" font-size="17" font-weight="700" fill="#13221d">Egocentric local state + 64-unit MLP</text>
  <text x="430" y="452" font-family="Arial, sans-serif" font-size="13" fill="#5f6e68">Action accuracy 0.834 / filtered success 0.760 / 943 interventions</text>
  <text x="430" y="486" font-family="Arial, sans-serif" font-size="17" font-weight="700" fill="#13221d">Rendered RGB crop + 64-unit MLP</text>
  <text x="430" y="510" font-family="Arial, sans-serif" font-size="13" fill="#5f6e68">Day: accuracy 0.813 / filtered success 0.719</text>
  <text x="430" y="530" font-family="Arial, sans-serif" font-size="13" fill="#5f6e68">Mean-pixel ablation: accuracy 0.474 / delta 0.340</text>
  <text x="430" y="550" font-family="Arial, sans-serif" font-size="13" fill="#5f6e68">Unseen work-light: accuracy 0.417 / filtered success 0.427</text>
  <rect x="430" y="580" width="520" height="118" rx="5" fill="#13221d"/>
  <text x="451" y="608" font-family="Arial, sans-serif" font-size="13" font-weight="700" fill="#e9b44c">INTERPRETATION</text>
  <text x="451" y="633" font-family="Arial, sans-serif" font-size="13" fill="#ffffff">Pixel ablation confirms that image values contribute beyond task telemetry.</text>
  <text x="451" y="653" font-family="Arial, sans-serif" font-size="13" fill="#ffffff">The unseen palette shift exposes severe visual brittleness and filter dependence.</text>
  <text x="451" y="673" font-family="Arial, sans-serif" font-size="13" fill="#ffffff">Pixels still originate from privileged simulator state, not a physical camera.</text>
  <text x="42" y="766" font-family="Arial, sans-serif" font-size="12" fill="#5f6e68">Legend: A agent / X obstacle / R restricted / W worker / S slow / O object / Z named zone / red border current subgoal</text>
</svg>
