<svg xmlns="http://www.w3.org/2000/svg" width="1200" height="590" viewBox="0 0 1200 590" role="img" aria-labelledby="title desc">
  <title id="title">Role-aware project specification trace</title>
  <desc id="desc">Synthetic conversation messages linked to extracted requirements and approved specification clauses.</desc>
  <rect width="1200" height="590" fill="#f4f1e9"/>
  <text x="34" y="38" font-family="Arial, sans-serif" font-size="13" font-weight="700" fill="#e85d3f">PROJECT BRIEF AND SPECIFICATION COPILOT · SYNTHETIC TRACE</text>
  <text x="34" y="72" font-family="Arial, sans-serif" font-size="29" font-weight="700" fill="#17231f">Conversation evidence becomes a reviewable draft</text>
  <text x="34" y="99" font-family="Arial, sans-serif" font-size="12" fill="#66736c">No approved clause without a source message and authorized role action.</text>
  <line x1="390" y1="116" x2="390" y2="530" stroke="#cbd2cc"/>
  <line x1="780" y1="116" x2="780" y2="530" stroke="#cbd2cc"/>
  <text x="34" y="126" font-family="Arial, sans-serif" font-size="11" font-weight="700" fill="#66736c">01 · ROLE-TAGGED MESSAGES</text>
  <text x="427" y="102" font-family="Arial, sans-serif" font-size="11" font-weight="700" fill="#66736c">02 · REQUIREMENT LEDGER</text>
  <text x="825" y="102" font-family="Arial, sans-serif" font-size="11" font-weight="700" fill="#66736c">03 · APPROVED DRAFT CLAUSES</text>
  <g font-family="Arial, sans-serif"><circle cx="52" cy="142" r="9" fill="#e85d3f"/><text x="72" y="138" font-size="11" font-weight="700" fill="#17231f">MSG-001 · Client</text><text x="72" y="160" font-size="11" fill="#59665f">The clinic needs 12 consultation rooms and st...</text><circle cx="52" cy="204" r="9" fill="#2f7d6d"/><text x="72" y="200" font-size="11" font-weight="700" fill="#17231f">MSG-002 · Architect</text><text x="72" y="222" font-size="11" fill="#59665f">The gross floor area target is 4,200 m2 acros...</text><circle cx="52" cy="266" r="9" fill="#e85d3f"/><text x="72" y="262" font-size="11" font-weight="700" fill="#17231f">MSG-003 · Client</text><text x="72" y="284" font-size="11" fill="#59665f">The budget cap is SGD 6.0 million.</text><circle cx="52" cy="328" r="9" fill="#e85d3f"/><text x="72" y="324" font-size="11" font-weight="700" fill="#17231f">MSG-004 · Client</text><text x="72" y="346" font-size="11" fill="#59665f">I approve the budget cap of SGD 6.0 million.</text><circle cx="52" cy="390" r="9" fill="#2f7d6d"/><text x="72" y="386" font-size="11" font-weight="700" fill="#17231f">MSG-005 · Architect</text><text x="72" y="408" font-size="11" fill="#59665f">I confirm the gross floor area 4,200 m2.</text><circle cx="52" cy="452" r="9" fill="#e85d3f"/><text x="72" y="448" font-size="11" font-weight="700" fill="#17231f">MSG-006 · Client</text><text x="72" y="470" font-size="11" fill="#59665f">Please revise the budget cap to SGD 5.5 milli...</text><rect x="427" y="112" width="312" height="42" rx="4" fill="#ffffff" stroke="#d8ddd8"/><rect x="427" y="112" width="7" height="42" fill="#d99a2b"/><text x="447" y="130" font-size="11" font-weight="700" fill="#17231f">REQ-001 · Consultation Rooms</text><text x="447" y="146" font-size="10" fill="#66736c">PROPOSED · source MSG-001</text><rect x="427" y="165" width="312" height="42" rx="4" fill="#ffffff" stroke="#d8ddd8"/><rect x="427" y="165" width="7" height="42" fill="#d99a2b"/><text x="447" y="183" font-size="11" font-weight="700" fill="#17231f">REQ-002 · Step-free access</text><text x="447" y="199" font-size="10" fill="#66736c">PROPOSED · source MSG-001</text><rect x="427" y="218" width="312" height="42" rx="4" fill="#ffffff" stroke="#d8ddd8"/><rect x="427" y="218" width="7" height="42" fill="#2f7d6d"/><text x="447" y="236" font-size="11" font-weight="700" fill="#17231f">REQ-003 · Gross floor area</text><text x="447" y="252" font-size="10" fill="#66736c">APPROVED · source MSG-002, MSG-005</text><rect x="427" y="271" width="312" height="42" rx="4" fill="#ffffff" stroke="#d8ddd8"/><rect x="427" y="271" width="7" height="42" fill="#d99a2b"/><text x="447" y="289" font-size="11" font-weight="700" fill="#17231f">REQ-004 · Storey count</text><text x="447" y="305" font-size="10" fill="#66736c">PROPOSED · source MSG-002</text><rect x="427" y="324" width="312" height="42" rx="4" fill="#ffffff" stroke="#d8ddd8"/><rect x="427" y="324" width="7" height="42" fill="#2f7d6d"/><text x="447" y="342" font-size="11" font-weight="700" fill="#17231f">REQ-006 · Project budget cap</text><text x="447" y="358" font-size="10" fill="#66736c">APPROVED · source MSG-006, MSG-007</text><rect x="427" y="377" width="312" height="42" rx="4" fill="#ffffff" stroke="#d8ddd8"/><rect x="427" y="377" width="7" height="42" fill="#2f7d6d"/><text x="447" y="395" font-size="11" font-weight="700" fill="#17231f">REQ-007 · Facade material</text><text x="447" y="411" font-size="10" fill="#66736c">APPROVED · source MSG-008, MSG-009</text><rect x="427" y="430" width="312" height="42" rx="4" fill="#ffffff" stroke="#d8ddd8"/><rect x="427" y="430" width="7" height="42" fill="#2f7d6d"/><text x="447" y="448" font-size="11" font-weight="700" fill="#17231f">REQ-008 · Handover target</text><text x="447" y="464" font-size="10" fill="#66736c">APPROVED · source MSG-010, MSG-011</text><text x="825" y="128" font-size="11" font-weight="700" fill="#2f7d6d">SPEC-001 · Cost Parameters</text><text x="825" y="147" font-size="11" fill="#17231f">Project budget cap: 5,500,000 SGD.</text><line x1="825" y1="159" x2="1150" y2="159" stroke="#d8ddd8"/><text x="825" y="185" font-size="11" font-weight="700" fill="#2f7d6d">SPEC-002 · Design Intent</text><text x="825" y="204" font-size="11" fill="#17231f">Facade material: terracotta rainscreen.</text><line x1="825" y1="216" x2="1150" y2="216" stroke="#d8ddd8"/><text x="825" y="242" font-size="11" font-weight="700" fill="#2f7d6d">SPEC-003 · Programme</text><text x="825" y="261" font-size="11" fill="#17231f">Gross floor area: 4,200 m2.</text><line x1="825" y1="273" x2="1150" y2="273" stroke="#d8ddd8"/><text x="825" y="299" font-size="11" font-weight="700" fill="#2f7d6d">SPEC-004 · Programme And Delivery</text><text x="825" y="318" font-size="11" fill="#17231f">Handover target: Q3 2028.</text><line x1="825" y1="330" x2="1150" y2="330" stroke="#d8ddd8"/></g>
  <rect x="34" y="536" width="1116" height="34" rx="3" fill="#17231f"/>
  <text x="52" y="558" font-family="Arial, sans-serif" font-size="11" fill="#ffffff">Status: draft_for_review · Open conflicts: 0 · Awaiting approval: 3 · Draft version: 51b2b730f7ca</text>
</svg>