<svg xmlns="http://www.w3.org/2000/svg" width="1000" height="620" viewBox="0 0 1000 620" role="img" aria-labelledby="title desc">
  <title id="title">Construction-agent observation representation comparison</title>
  <desc id="desc">A synthetic construction grid showing an agent-centered local window and measured engineered-state, world-raster, and egocentric policy results.</desc>
  <rect width="1000" height="620" fill="#f4f3ed"/>
  <rect width="1000" height="12" fill="#13221d"/>
  <text x="42" y="51" font-family="Arial, sans-serif" font-size="13" font-weight="700" fill="#e85d3f">OBSERVATION REPRESENTATION STUDY / SYNTHETIC SIMULATOR STATE</text>
  <text x="42" y="86" font-family="Arial, sans-serif" font-size="27" font-weight="700" fill="#13221d">Agent-centered local state recovers performance</text>
  <rect x="42" y="112" width="52" height="52" fill="#58a58c" stroke="#e85d3f" stroke-width="4"/><text x="68.0" y="145" text-anchor="middle" font-family="Arial, sans-serif" font-size="15" font-weight="700" fill="#13221d">O</text><rect x="94" y="112" width="52" height="52" fill="#f8faf8" stroke="#c9d3ce" stroke-width="1"/><rect x="146" y="112" width="52" height="52" fill="#f8faf8" stroke="#c9d3ce" stroke-width="1"/><rect x="198" y="112" width="52" height="52" fill="#f8faf8" stroke="#c9d3ce" stroke-width="1"/><rect x="250" y="112" width="52" height="52" fill="#f8faf8" stroke="#c9d3ce" stroke-width="1"/><rect x="302" y="112" width="52" height="52" fill="#f8faf8" stroke="#c9d3ce" stroke-width="1"/><rect x="354" y="112" width="52" height="52" fill="#7fa8bd" stroke="#c9d3ce" stroke-width="1"/><text x="380.0" y="145" text-anchor="middle" font-family="Arial, sans-serif" font-size="15" font-weight="700" fill="#13221d">Z</text><circle cx="380.0" cy="138.0" r="13" fill="#ffffff" stroke="#267d6a" stroke-width="5"/><rect x="42" y="164" width="52" height="52" fill="#f8faf8" stroke="#c9d3ce" stroke-width="1"/><rect x="94" y="164" width="52" height="52" fill="#f8faf8" stroke="#c9d3ce" stroke-width="1"/><rect x="146" y="164" width="52" height="52" fill="#26322e" stroke="#c9d3ce" stroke-width="1"/><text x="172.0" y="197" text-anchor="middle" font-family="Arial, sans-serif" font-size="15" font-weight="700" fill="#13221d">X</text><rect x="198" y="164" width="52" height="52" fill="#f8faf8" stroke="#c9d3ce" stroke-width="1"/><rect x="250" y="164" width="52" height="52" fill="#f8faf8" stroke="#c9d3ce" stroke-width="1"/><rect x="302" y="164" width="52" height="52" fill="#f8faf8" stroke="#c9d3ce" stroke-width="1"/><rect x="354" y="164" width="52" height="52" fill="#d7e0dc" stroke="#c9d3ce" stroke-width="1"/><text x="380.0" y="197" text-anchor="middle" font-family="Arial, sans-serif" font-size="15" font-weight="700" fill="#13221d">S</text><rect x="42" y="216" width="52" height="52" fill="#f8faf8" stroke="#c9d3ce" stroke-width="1"/><rect x="94" y="216" width="52" height="52" fill="#26322e" stroke="#c9d3ce" stroke-width="1"/><text x="120.0" y="249" text-anchor="middle" font-family="Arial, sans-serif" font-size="15" font-weight="700" fill="#13221d">X</text><rect x="146" y="216" width="52" height="52" fill="#f8faf8" stroke="#c9d3ce" stroke-width="1"/><rect x="198" y="216" width="52" height="52" fill="#e76f51" stroke="#c9d3ce" stroke-width="1"/><text x="224.0" y="249" text-anchor="middle" font-family="Arial, sans-serif" font-size="15" font-weight="700" fill="#13221d">R</text><rect x="250" y="216" width="52" height="52" fill="#f8faf8" stroke="#c9d3ce" stroke-width="1"/><rect x="302" y="216" width="52" height="52" fill="#e76f51" stroke="#c9d3ce" stroke-width="1"/><text x="328.0" y="249" text-anchor="middle" font-family="Arial, sans-serif" font-size="15" font-weight="700" fill="#13221d">R</text><rect x="354" y="216" width="52" height="52" fill="#f8faf8" stroke="#c9d3ce" stroke-width="1"/><rect x="42" y="268" width="52" height="52" fill="#f8faf8" stroke="#c9d3ce" stroke-width="1"/><rect x="94" y="268" width="52" height="52" fill="#f8faf8" stroke="#c9d3ce" stroke-width="1"/><rect x="146" y="268" width="52" height="52" fill="#26322e" stroke="#c9d3ce" stroke-width="1"/><text x="172.0" y="301" text-anchor="middle" font-family="Arial, sans-serif" font-size="15" font-weight="700" fill="#13221d">X</text><rect x="198" y="268" width="52" height="52" fill="#f8faf8" stroke="#c9d3ce" stroke-width="1"/><rect x="250" y="268" width="52" height="52" fill="#f8faf8" stroke="#c9d3ce" stroke-width="1"/><rect x="302" y="268" width="52" height="52" fill="#f8faf8" stroke="#c9d3ce" stroke-width="1"/><rect x="354" y="268" width="52" height="52" fill="#f8faf8" stroke="#c9d3ce" stroke-width="1"/><rect x="42" y="320" width="52" height="52" fill="#f8faf8" stroke="#c9d3ce" stroke-width="1"/><rect x="94" y="320" width="52" height="52" fill="#f8faf8" stroke="#c9d3ce" stroke-width="1"/><rect x="146" y="320" width="52" height="52" fill="#26322e" stroke="#c9d3ce" stroke-width="1"/><text x="172.0" y="353" text-anchor="middle" font-family="Arial, sans-serif" font-size="15" font-weight="700" fill="#13221d">X</text><rect x="198" y="320" width="52" height="52" fill="#e9b44c" stroke="#c9d3ce" stroke-width="1"/><text x="224.0" y="353" text-anchor="middle" font-family="Arial, sans-serif" font-size="15" font-weight="700" fill="#13221d">W</text><rect x="250" y="320" width="52" height="52" fill="#f8faf8" stroke="#c9d3ce" stroke-width="1"/><rect x="302" y="320" width="52" height="52" fill="#d7e0dc" stroke="#c9d3ce" stroke-width="1"/><text x="328.0" y="353" text-anchor="middle" font-family="Arial, sans-serif" font-size="15" font-weight="700" fill="#13221d">S</text><rect x="354" y="320" width="52" height="52" fill="#e9b44c" stroke="#c9d3ce" stroke-width="1"/><text x="380.0" y="353" text-anchor="middle" font-family="Arial, sans-serif" font-size="15" font-weight="700" fill="#13221d">W</text><rect x="42" y="372" width="52" height="52" fill="#f8faf8" stroke="#c9d3ce" stroke-width="1"/><rect x="94" y="372" width="52" height="52" fill="#d7e0dc" stroke="#c9d3ce" stroke-width="1"/><text x="120.0" y="405" text-anchor="middle" font-family="Arial, sans-serif" font-size="15" font-weight="700" fill="#13221d">S</text><rect x="146" y="372" width="52" height="52" fill="#f8faf8" stroke="#c9d3ce" stroke-width="1"/><rect x="198" y="372" width="52" height="52" fill="#f8faf8" stroke="#c9d3ce" stroke-width="1"/><rect x="250" y="372" width="52" height="52" fill="#f8faf8" stroke="#c9d3ce" stroke-width="1"/><rect x="302" y="372" width="52" height="52" fill="#f8faf8" stroke="#c9d3ce" stroke-width="1"/><rect x="354" y="372" width="52" height="52" fill="#f8faf8" stroke="#c9d3ce" stroke-width="1"/><rect x="42" y="424" width="52" height="52" fill="#f8faf8" stroke="#c9d3ce" stroke-width="1"/><rect x="94" y="424" width="52" height="52" fill="#f8faf8" stroke="#c9d3ce" stroke-width="1"/><rect x="146" y="424" width="52" height="52" fill="#26322e" stroke="#c9d3ce" stroke-width="1"/><text x="172.0" y="457" text-anchor="middle" font-family="Arial, sans-serif" font-size="15" font-weight="700" fill="#13221d">X</text><rect x="198" y="424" width="52" height="52" fill="#f8faf8" stroke="#c9d3ce" stroke-width="1"/><rect x="250" y="424" width="52" height="52" fill="#f8faf8" stroke="#c9d3ce" stroke-width="1"/><rect x="302" y="424" width="52" height="52" fill="#7fa8bd" stroke="#c9d3ce" stroke-width="1"/><text x="328.0" y="457" text-anchor="middle" font-family="Arial, sans-serif" font-size="15" font-weight="700" fill="#13221d">Z</text><rect x="354" y="424" width="52" height="52" fill="#f8faf8" stroke="#c9d3ce" stroke-width="1"/><rect x="254" y="116" width="148" height="148" fill="none" stroke="#267d6a" stroke-width="3" stroke-dasharray="8 6"/>
  <text x="42" y="505" font-family="Arial, sans-serif" font-size="12" fill="#267d6a">Dashed outline: visible portion of the agent-centered 5 x 5 window</text>
  <text x="430" y="128" font-family="Arial, sans-serif" font-size="13" font-weight="700" fill="#267d6a">OBSERVATION CONTRACTS</text>
  <text x="430" y="158" font-family="Arial, sans-serif" font-size="17" font-weight="700" fill="#13221d">World raster: 8 x 7 x 7 channels + 6 globals</text>
  <text x="430" y="184" font-family="Arial, sans-serif" font-size="17" font-weight="700" fill="#13221d">Egocentric: 8 x 5 x 5 channels + 10 globals</text>
  <text x="430" y="208" font-family="Arial, sans-serif" font-size="13" fill="#5f6e68">Task: deliver / simulator state / no camera pixels</text>
  <line x1="430" y1="230" x2="950" y2="230" stroke="#cad4cf"/>
  <text x="430" y="262" font-family="Arial, sans-serif" font-size="13" font-weight="700" fill="#e85d3f">SHARED 96-SCENARIO HOLDOUT</text>
  <text x="430" y="292" font-family="Arial, sans-serif" font-size="17" font-weight="700" fill="#13221d">Engineered state + random forest</text>
  <text x="430" y="316" font-family="Arial, sans-serif" font-size="13" fill="#5f6e68">Action accuracy 0.855 / filtered success 0.698</text>
  <text x="430" y="350" font-family="Arial, sans-serif" font-size="17" font-weight="700" fill="#13221d">World-frame raster + 64-unit MLP</text>
  <text x="430" y="374" font-family="Arial, sans-serif" font-size="13" fill="#5f6e68">Action accuracy 0.478 / filtered success 0.292</text>
  <text x="430" y="408" font-family="Arial, sans-serif" font-size="17" font-weight="700" fill="#13221d">Egocentric local state + 64-unit MLP</text>
  <text x="430" y="432" font-family="Arial, sans-serif" font-size="13" fill="#5f6e68">Action accuracy 0.834 / filtered success 0.760 / 943 interventions</text>
  <rect x="430" y="460" width="520" height="96" rx="5" fill="#13221d"/>
  <text x="451" y="488" font-family="Arial, sans-serif" font-size="13" font-weight="700" fill="#e9b44c">INTERPRETATION</text>
  <text x="451" y="513" font-family="Arial, sans-serif" font-size="13" fill="#ffffff">Centering local state recovers most action accuracy lost by flattening the world grid.</text>
  <text x="451" y="533" font-family="Arial, sans-serif" font-size="13" fill="#ffffff">Filtered success still depends on hand-authored rules and many interventions.</text>
  <text x="451" y="551" font-family="Arial, sans-serif" font-size="13" fill="#ffffff">This is observation-design evidence, not camera perception or robot safety.</text>
  <text x="42" y="590" font-family="Arial, sans-serif" font-size="12" fill="#5f6e68">Legend: A agent / X obstacle / R restricted / W worker / S slow / O object / Z named zone / red border current subgoal</text>
</svg>
