<svg xmlns="http://www.w3.org/2000/svg" width="1200" height="620" viewBox="0 0 1200 620" role="img" aria-labelledby="title">
  <title id="title">Synthetic tender comparison</title>
  <rect width="1200" height="620" fill="#f4f1e9"/>
  <text x="35" y="42" font-family="Arial, sans-serif" font-size="13" font-weight="700" fill="#e85d3f">NORMALIZED TENDER REVIEW / SYNTHETIC BIDS</text>
  <text x="35" y="78" font-family="Arial, sans-serif" font-size="28" font-weight="700" fill="#17231f">Transparent exceptions, no award recommendation</text>
  <g font-family="Arial, sans-serif"><rect x="35" y="105" width="350" height="465" rx="5" fill="#ffffff" stroke="#d7ddd8"/><text x="57" y="140" font-size="12" font-weight="700" fill="#2f7d6d">TENDER-A</text><text x="57" y="170" font-size="20" font-weight="700" fill="#17231f">Anonymous Bidder A</text><rect x="70" y="301.3" width="90" height="198.7" rx="3" fill="#426b8f"/><line x1="55" y1="307.0" x2="180" y2="307.0" stroke="#d49336" stroke-width="3" stroke-dasharray="6 4"/><text x="200" y="235" font-size="11" fill="#66736c">Submitted total</text><text x="200" y="260" font-size="18" font-weight="700" fill="#17231f">SGD 36,800</text><text x="200" y="310" font-size="11" fill="#66736c">Benchmark deviation</text><text x="200" y="335" font-size="18" font-weight="700" fill="#17231f">+3.0%</text><text x="200" y="385" font-size="11" fill="#66736c">Completeness</text><text x="200" y="410" font-size="18" font-weight="700" fill="#17231f">100%</text><text x="200" y="460" font-size="11" fill="#66736c">Review flags</text><text x="200" y="485" font-size="18" font-weight="700" fill="#2f7d6d">0</text><text x="57" y="545" font-size="11" fill="#66736c">Gold line: synthetic benchmark</text><rect x="417" y="105" width="350" height="465" rx="5" fill="#ffffff" stroke="#d7ddd8"/><text x="439" y="140" font-size="12" font-weight="700" fill="#e85d3f">TENDER-B</text><text x="439" y="170" font-size="20" font-weight="700" fill="#17231f">Anonymous Bidder B</text><rect x="452" y="360.7" width="90" height="139.3" rx="3" fill="#426b8f"/><line x1="437" y1="307.0" x2="562" y2="307.0" stroke="#d49336" stroke-width="3" stroke-dasharray="6 4"/><text x="582" y="235" font-size="11" fill="#66736c">Submitted total</text><text x="582" y="260" font-size="18" font-weight="700" fill="#17231f">SGD 25,800</text><text x="582" y="310" font-size="11" fill="#66736c">Benchmark deviation</text><text x="582" y="335" font-size="18" font-weight="700" fill="#17231f">-27.8%</text><text x="582" y="385" font-size="11" fill="#66736c">Completeness</text><text x="582" y="410" font-size="18" font-weight="700" fill="#17231f">86%</text><text x="582" y="460" font-size="11" fill="#66736c">Review flags</text><text x="582" y="485" font-size="18" font-weight="700" fill="#e85d3f">2</text><text x="439" y="545" font-size="11" fill="#66736c">Gold line: synthetic benchmark</text><rect x="799" y="105" width="350" height="465" rx="5" fill="#ffffff" stroke="#d7ddd8"/><text x="821" y="140" font-size="12" font-weight="700" fill="#e85d3f">TENDER-C</text><text x="821" y="170" font-size="20" font-weight="700" fill="#17231f">Anonymous Bidder C</text><rect x="834" y="260.0" width="90" height="240.0" rx="3" fill="#426b8f"/><line x1="819" y1="307.0" x2="944" y2="307.0" stroke="#d49336" stroke-width="3" stroke-dasharray="6 4"/><text x="964" y="235" font-size="11" fill="#66736c">Submitted total</text><text x="964" y="260" font-size="18" font-weight="700" fill="#17231f">SGD 44,450</text><text x="964" y="310" font-size="11" fill="#66736c">Benchmark deviation</text><text x="964" y="335" font-size="18" font-weight="700" fill="#17231f">+24.4%</text><text x="964" y="385" font-size="11" fill="#66736c">Completeness</text><text x="964" y="410" font-size="18" font-weight="700" fill="#17231f">100%</text><text x="964" y="460" font-size="11" fill="#66736c">Review flags</text><text x="964" y="485" font-size="18" font-weight="700" fill="#e85d3f">3</text><text x="821" y="545" font-size="11" fill="#66736c">Gold line: synthetic benchmark</text></g>
  <text x="35" y="600" font-family="Arial, sans-serif" font-size="11" fill="#66736c">Illustrative comparison bands only. Commercial review, scope normalization, bidder clarification, and professional QS judgment remain required.</text>
</svg>