<?xml version="1.0" encoding="UTF-8"?>
<svg xmlns="http://www.w3.org/2000/svg" width="1400" height="840" viewBox="0 0 1400 840" role="img" aria-labelledby="map-title map-desc">
<metadata>{&quot;badges&quot;:[&quot;LOCAL-FIRST&quot;,&quot;PUBLIC + SYNTHETIC&quot;,&quot;NO PAID API&quot;],&quot;boundary&quot;:&quot;A qualified professional verifies currency, applicability, and every decision.&quot;,&quot;connectors&quot;:[&quot;validate&quot;,&quot;index&quot;,&quot;rank&quot;,&quot;serve&quot;],&quot;evidence&quot;:[{&quot;accent&quot;:&quot;#00A896&quot;,&quot;details&quot;:[&quot;21 answerable public cases&quot;,&quot;MRR 0.976; top-4 recall 100.0%&quot;],&quot;headline&quot;:&quot;Hit@1 0.952&quot;,&quot;tag&quot;:&quot;document retrieval&quot;},{&quot;accent&quot;:&quot;#F2B134&quot;,&quot;details&quot;:[&quot;page target Hit@1 0.778&quot;,&quot;lower result remains visible&quot;],&quot;headline&quot;:&quot;Exact chunk 0.810&quot;,&quot;tag&quot;:&quot;harder evidence target&quot;},{&quot;accent&quot;:&quot;#E66A47&quot;,&quot;details&quot;:[&quot;no-answer accuracy 100.0%&quot;,&quot;not code approval or legal advice&quot;],&quot;headline&quot;:&quot;Cite or refuse&quot;,&quot;tag&quot;:&quot;control boundary&quot;}],&quot;sources&quot;:[&quot;retrieval_eval_summary.json&quot;,&quot;service evidence&quot;],&quot;stages&quot;:[{&quot;details&quot;:[&quot;synthetic default corpus&quot;,&quot;15 public documents&quot;,&quot;hash + rights metadata&quot;],&quot;output&quot;:&quot;validated source records&quot;,&quot;tag&quot;:&quot;sources&quot;,&quot;title&quot;:[&quot;Bounded document&quot;,&quot;inventory&quot;]},{&quot;details&quot;:[&quot;heading and clause ids&quot;,&quot;page and word offsets&quot;,&quot;stable chunk identifiers&quot;],&quot;output&quot;:&quot;metadata-rich index&quot;,&quot;tag&quot;:&quot;ingestion&quot;,&quot;title&quot;:[&quot;Page-aware&quot;,&quot;evidence chunks&quot;]},{&quot;details&quot;:[&quot;TF-IDF / BM25 / LSA&quot;,&quot;hybrid + source filters&quot;,&quot;exact-target evaluation&quot;],&quot;output&quot;:&quot;ranked evidence set&quot;,&quot;tag&quot;:&quot;retrieval&quot;,&quot;title&quot;:[&quot;Inspectable local&quot;,&quot;ranking&quot;]},{&quot;details&quot;:[&quot;support threshold&quot;,&quot;source-status warnings&quot;,&quot;structured citations&quot;],&quot;output&quot;:&quot;answer status + citations&quot;,&quot;tag&quot;:&quot;answer gate&quot;,&quot;title&quot;:[&quot;Ground, cite,&quot;,&quot;or abstain&quot;]},{&quot;details&quot;:[&quot;API key + request ids&quot;,&quot;redacted SQLite logs&quot;,&quot;durable telemetry&quot;],&quot;output&quot;:&quot;reviewable request trace&quot;,&quot;tag&quot;:&quot;service&quot;,&quot;title&quot;:[&quot;Tested local&quot;,&quot;API boundary&quot;]}],&quot;subtitle&quot;:&quot;How a question becomes cited evidence or an explicit abstention&quot;,&quot;title&quot;:&quot;AEC Code Compliance RAG&quot;}</metadata>
<title id="map-title">AEC Code Compliance RAG system map</title>
<desc id="map-desc">How a question becomes cited evidence or an explicit abstention Five implementation stages lead to measured evidence, explicit controls, and a bounded professional-review output.</desc>
<defs>
  <filter id="card-shadow" x="-20%" y="-20%" width="140%" height="150%">
    <feDropShadow dx="0" dy="7" stdDeviation="8" flood-color="#0D1B2A" flood-opacity="0.11"/>
  </filter>
  <marker id="arrow" markerWidth="10" markerHeight="10" refX="8" refY="5" orient="auto">
    <path d="M 0 0 L 10 5 L 0 10 z" fill="#5D6A78"/>
  </marker>
  <style>
    text { font-family: Inter, "Segoe UI", Arial, sans-serif; letter-spacing: 0; }
    .title { font-size: 34px; font-weight: 700; fill: #FFFFFF; }
    .subtitle { font-size: 17px; font-weight: 400; fill: #C9D4DE; }
    .badge { font-size: 12px; font-weight: 700; fill: #FFFFFF; }
    .section { font-size: 13px; font-weight: 700; fill: #526170; }
    .tag { font-size: 11px; font-weight: 700; fill: #526170; }
    .stage-title { font-size: 20px; font-weight: 700; fill: #142333; }
    .detail { font-size: 14px; font-weight: 400; fill: #425466; }
    .output-label { font-size: 10px; font-weight: 700; fill: #6A7785; }
    .output { font-size: 13px; font-weight: 600; fill: #203447; }
    .connector { font-size: 11px; font-weight: 700; fill: #526170; }
    .panel-tag { font-size: 11px; font-weight: 700; fill: #526170; }
    .panel-headline { font-size: 22px; font-weight: 700; fill: #142333; }
    .panel-detail { font-size: 14px; font-weight: 400; fill: #425466; }
    .footer { font-size: 14px; font-weight: 600; fill: #26394C; }
    .source { font-size: 11px; font-weight: 600; fill: #6A7785; }
  </style>
</defs>
<rect width="1400" height="840" fill="#F4F7FA"/>
<rect width="1400" height="140" fill="#0D1B2A"/>
<path d="M0 140 H1400" stroke="#1E88E5" stroke-width="4"/>
<text x="40" y="58" class="title" text-anchor="start">AEC Code Compliance RAG</text>
<text x="40" y="94" class="subtitle" text-anchor="start">How a question becomes cited evidence or an explicit abstention</text>
<rect x="990.0" y="48" width="99.4" height="30" rx="4" fill="#20364A" stroke="#4C6478"/>
<text x="1039.7" y="68" class="badge" text-anchor="middle">LOCAL-FIRST</text>
<rect x="1099.4" y="48" width="151.20000000000002" height="30" rx="4" fill="#20364A" stroke="#4C6478"/>
<text x="1175.0" y="68" class="badge" text-anchor="middle">PUBLIC + SYNTHETIC</text>
<rect x="1260.6000000000001" y="48" width="99.4" height="30" rx="4" fill="#20364A" stroke="#4C6478"/>
<text x="1310.3000000000002" y="68" class="badge" text-anchor="middle">NO PAID API</text>
<text x="40" y="172" class="section" text-anchor="start">EXECUTED SYSTEM JOURNEY</text>
<rect x="40" y="195" width="240" height="300" rx="7" fill="#FFFFFF" filter="url(#card-shadow)"/>
<rect x="40" y="195" width="240" height="7" rx="7" fill="#1E88E5"/>
<circle cx="70" cy="233" r="17" fill="#1E88E5"/>
<text x="70" y="238" class="badge" text-anchor="middle">1</text>
<text x="96" y="237" class="tag" text-anchor="start">SOURCES</text>
<text x="60" y="287" class="stage-title" text-anchor="start">Bounded document</text>
<text x="60" y="311" class="stage-title" text-anchor="start">inventory</text>
<path d="M60 346 H260" stroke="#DCE3EA"/>
<circle cx="65" cy="371" r="3" fill="#1E88E5"/>
<text x="78" y="376" class="detail" text-anchor="start">synthetic default corpus</text>
<circle cx="65" cy="395" r="3" fill="#1E88E5"/>
<text x="78" y="400" class="detail" text-anchor="start">15 public documents</text>
<circle cx="65" cy="419" r="3" fill="#1E88E5"/>
<text x="78" y="424" class="detail" text-anchor="start">hash + rights metadata</text>
<text x="60" y="464" class="output-label" text-anchor="start">OUTPUT</text>
<text x="60" y="484" class="output" text-anchor="start">validated source records</text>
<rect x="304" y="195" width="240" height="300" rx="7" fill="#FFFFFF" filter="url(#card-shadow)"/>
<rect x="304" y="195" width="240" height="7" rx="7" fill="#00A896"/>
<circle cx="334" cy="233" r="17" fill="#00A896"/>
<text x="334" y="238" class="badge" text-anchor="middle">2</text>
<text x="360" y="237" class="tag" text-anchor="start">INGESTION</text>
<text x="324" y="287" class="stage-title" text-anchor="start">Page-aware</text>
<text x="324" y="311" class="stage-title" text-anchor="start">evidence chunks</text>
<path d="M324 346 H524" stroke="#DCE3EA"/>
<circle cx="329" cy="371" r="3" fill="#00A896"/>
<text x="342" y="376" class="detail" text-anchor="start">heading and clause ids</text>
<circle cx="329" cy="395" r="3" fill="#00A896"/>
<text x="342" y="400" class="detail" text-anchor="start">page and word offsets</text>
<circle cx="329" cy="419" r="3" fill="#00A896"/>
<text x="342" y="424" class="detail" text-anchor="start">stable chunk identifiers</text>
<text x="324" y="464" class="output-label" text-anchor="start">OUTPUT</text>
<text x="324" y="484" class="output" text-anchor="start">metadata-rich index</text>
<rect x="568" y="195" width="240" height="300" rx="7" fill="#FFFFFF" filter="url(#card-shadow)"/>
<rect x="568" y="195" width="240" height="7" rx="7" fill="#F2B134"/>
<circle cx="598" cy="233" r="17" fill="#F2B134"/>
<text x="598" y="238" class="badge" text-anchor="middle">3</text>
<text x="624" y="237" class="tag" text-anchor="start">RETRIEVAL</text>
<text x="588" y="287" class="stage-title" text-anchor="start">Inspectable local</text>
<text x="588" y="311" class="stage-title" text-anchor="start">ranking</text>
<path d="M588 346 H788" stroke="#DCE3EA"/>
<circle cx="593" cy="371" r="3" fill="#F2B134"/>
<text x="606" y="376" class="detail" text-anchor="start">TF-IDF / BM25 / LSA</text>
<circle cx="593" cy="395" r="3" fill="#F2B134"/>
<text x="606" y="400" class="detail" text-anchor="start">hybrid + source filters</text>
<circle cx="593" cy="419" r="3" fill="#F2B134"/>
<text x="606" y="424" class="detail" text-anchor="start">exact-target evaluation</text>
<text x="588" y="464" class="output-label" text-anchor="start">OUTPUT</text>
<text x="588" y="484" class="output" text-anchor="start">ranked evidence set</text>
<rect x="832" y="195" width="240" height="300" rx="7" fill="#FFFFFF" filter="url(#card-shadow)"/>
<rect x="832" y="195" width="240" height="7" rx="7" fill="#E66A47"/>
<circle cx="862" cy="233" r="17" fill="#E66A47"/>
<text x="862" y="238" class="badge" text-anchor="middle">4</text>
<text x="888" y="237" class="tag" text-anchor="start">ANSWER GATE</text>
<text x="852" y="287" class="stage-title" text-anchor="start">Ground, cite,</text>
<text x="852" y="311" class="stage-title" text-anchor="start">or abstain</text>
<path d="M852 346 H1052" stroke="#DCE3EA"/>
<circle cx="857" cy="371" r="3" fill="#E66A47"/>
<text x="870" y="376" class="detail" text-anchor="start">support threshold</text>
<circle cx="857" cy="395" r="3" fill="#E66A47"/>
<text x="870" y="400" class="detail" text-anchor="start">source-status warnings</text>
<circle cx="857" cy="419" r="3" fill="#E66A47"/>
<text x="870" y="424" class="detail" text-anchor="start">structured citations</text>
<text x="852" y="464" class="output-label" text-anchor="start">OUTPUT</text>
<text x="852" y="484" class="output" text-anchor="start">answer status + citations</text>
<rect x="1096" y="195" width="240" height="300" rx="7" fill="#FFFFFF" filter="url(#card-shadow)"/>
<rect x="1096" y="195" width="240" height="7" rx="7" fill="#6B5DD3"/>
<circle cx="1126" cy="233" r="17" fill="#6B5DD3"/>
<text x="1126" y="238" class="badge" text-anchor="middle">5</text>
<text x="1152" y="237" class="tag" text-anchor="start">SERVICE</text>
<text x="1116" y="287" class="stage-title" text-anchor="start">Tested local</text>
<text x="1116" y="311" class="stage-title" text-anchor="start">API boundary</text>
<path d="M1116 346 H1316" stroke="#DCE3EA"/>
<circle cx="1121" cy="371" r="3" fill="#6B5DD3"/>
<text x="1134" y="376" class="detail" text-anchor="start">API key + request ids</text>
<circle cx="1121" cy="395" r="3" fill="#6B5DD3"/>
<text x="1134" y="400" class="detail" text-anchor="start">redacted SQLite logs</text>
<circle cx="1121" cy="419" r="3" fill="#6B5DD3"/>
<text x="1134" y="424" class="detail" text-anchor="start">durable telemetry</text>
<text x="1116" y="464" class="output-label" text-anchor="start">OUTPUT</text>
<text x="1116" y="484" class="output" text-anchor="start">reviewable request trace</text>
<path d="M287 348 H295" stroke="#5D6A78" stroke-width="2" marker-end="url(#arrow)"/>
<rect x="251.0" y="321" width="80" height="20" rx="3" fill="#F4F7FA"/>
<text x="291.0" y="335" class="connector" text-anchor="middle">VALIDATE</text>
<path d="M551 348 H559" stroke="#5D6A78" stroke-width="2" marker-end="url(#arrow)"/>
<rect x="515.0" y="321" width="80" height="20" rx="3" fill="#F4F7FA"/>
<text x="555.0" y="335" class="connector" text-anchor="middle">INDEX</text>
<path d="M815 348 H823" stroke="#5D6A78" stroke-width="2" marker-end="url(#arrow)"/>
<rect x="779.0" y="321" width="80" height="20" rx="3" fill="#F4F7FA"/>
<text x="819.0" y="335" class="connector" text-anchor="middle">RANK</text>
<path d="M1079 348 H1087" stroke="#5D6A78" stroke-width="2" marker-end="url(#arrow)"/>
<rect x="1043.0" y="321" width="80" height="20" rx="3" fill="#F4F7FA"/>
<text x="1083.0" y="335" class="connector" text-anchor="middle">SERVE</text>
<text x="40" y="542" class="section" text-anchor="start">PROOF, CONTROLS, AND FAILURE BOUNDARIES</text>
<rect x="40" y="565" width="424" height="168" rx="7" fill="#FFFFFF" stroke="#D8E0E8"/>
<rect x="40" y="565" width="8" height="168" rx="4" fill="#00A896"/>
<text x="68" y="595" class="panel-tag" text-anchor="start">DOCUMENT RETRIEVAL</text>
<text x="68" y="630" class="panel-headline" text-anchor="start">Hit@1 0.952</text>
<text x="68" y="663" class="panel-detail" text-anchor="start">21 answerable public cases</text>
<text x="68" y="686" class="panel-detail" text-anchor="start">MRR 0.976; top-4 recall 100.0%</text>
<rect x="488" y="565" width="424" height="168" rx="7" fill="#FFFFFF" stroke="#D8E0E8"/>
<rect x="488" y="565" width="8" height="168" rx="4" fill="#F2B134"/>
<text x="516" y="595" class="panel-tag" text-anchor="start">HARDER EVIDENCE TARGET</text>
<text x="516" y="630" class="panel-headline" text-anchor="start">Exact chunk 0.810</text>
<text x="516" y="663" class="panel-detail" text-anchor="start">page target Hit@1 0.778</text>
<text x="516" y="686" class="panel-detail" text-anchor="start">lower result remains visible</text>
<rect x="936" y="565" width="424" height="168" rx="7" fill="#FFFFFF" stroke="#D8E0E8"/>
<rect x="936" y="565" width="8" height="168" rx="4" fill="#E66A47"/>
<text x="964" y="595" class="panel-tag" text-anchor="start">CONTROL BOUNDARY</text>
<text x="964" y="630" class="panel-headline" text-anchor="start">Cite or refuse</text>
<text x="964" y="663" class="panel-detail" text-anchor="start">no-answer accuracy 100.0%</text>
<text x="964" y="686" class="panel-detail" text-anchor="start">not code approval or legal advice</text>
<rect x="40" y="770" width="1320" height="45" rx="6" fill="#E7EDF3"/>
<rect x="40" y="770" width="8" height="45" rx="4" fill="#E66A47"/>
<text x="64" y="798" class="footer" text-anchor="start">HUMAN REVIEW BOUNDARY: A qualified professional verifies currency, applicability, and every decision.</text>
<text x="1360" y="829" class="source" text-anchor="end">GENERATED FROM retrieval_eval_summary.json + service evidence</text>
</svg>
